<svg id="_137" data-name="137" xmlns="http://www.w3.org/2000/svg" width="92" height="84" viewBox="0 0 92 84">
  <path id="Path_18759" data-name="Path 18759" d="M52.48,82.063c3.323,2.141,7.872-.5,8.458-4.394.633-4.22-3.693-7.061-7.327-6.626-4.028.484-6.613,5.114-5.239,9.057A5.923,5.923,0,0,0,57.7,82.66c.825-.675-.339-1.868-1.151-1.2a4.306,4.306,0,0,1-6.773-2.331c-.753-2.969,1.295-6.237,4.307-6.435,2.354-.157,5.271,1.462,5.275,4.207,0,3.006-3.586,5.288-6.068,3.7-.9-.576-1.713.89-.821,1.462Z" fill="#fff"/>
  <path id="Path_18760" data-name="Path 18760" d="M5.858,30.467c4.345,2.8,10.295-.65,11.061-5.746.828-5.518-4.83-9.233-9.581-8.664C2.07,16.691-1.311,22.745.487,27.9a7.745,7.745,0,0,0,12.2,3.347c1.078-.883-.443-2.442-1.506-1.565a5.631,5.631,0,0,1-8.857-3.049c-.985-3.883,1.693-8.155,5.632-8.415,3.079-.206,6.893,1.912,6.9,5.5,0,3.932-4.689,6.915-7.935,4.836-1.172-.753-2.24,1.164-1.073,1.912Z" fill="#fff"/>
  <path id="Path_18761" data-name="Path 18761" d="M76.27,20.425c6.134,3.952,14.534-.918,15.615-8.112C93.055,4.523,85.067-.722,78.359.081,70.923.975,66.15,9.523,68.687,16.8a10.934,10.934,0,0,0,17.226,4.725c1.522-1.246-.625-3.448-2.126-2.209-4.266,3.5-11.114,1.177-12.5-4.3S73.674,3.5,79.234,3.131c4.347-.291,9.731,2.7,9.738,7.767,0,5.55-6.62,9.763-11.2,6.827-1.655-1.063-3.163,1.644-1.515,2.7Z" fill="#fff"/>
  <path id="Path_18762" data-name="Path 18762" d="M50.954,72.386S31.644,43.6,12.96,29.431" fill="none" stroke="#fff" stroke-width="2"/>
</svg>
