<svg xmlns="http://www.w3.org/2000/svg" width="1366" height="484.461" viewBox="0 0 1366 484.461">
  <g id="_3463018" data-name="3463018" transform="translate(-38.2 -5)" opacity="0.1">
    <g id="Group_8003" data-name="Group 8003" transform="translate(118.7 187.064)">
      <line id="Line_112" data-name="Line 112" y2="62.565" transform="translate(29.405)" fill="none"/>
      <path id="Path_15552" data-name="Path 15552" d="M83.7,134.175,98.716,110.4l15.224,23.566" transform="translate(-69.31 -72.653)" fill="#eef0f2"/>
      <rect id="Rectangle_1803" data-name="Rectangle 1803" width="29.614" height="8.133" transform="translate(14.598 83.003)" fill="#eef0f2"/>
      <rect id="Rectangle_1804" data-name="Rectangle 1804" width="46.089" height="23.775" transform="translate(6.256 60.688)" fill="#eef0f2"/>
      <rect id="Rectangle_1805" data-name="Rectangle 1805" width="25.652" height="210.844" transform="translate(0 89.051)" fill="#eef0f2"/>
      <rect id="Rectangle_1806" data-name="Rectangle 1806" width="25.652" height="210.844" transform="translate(32.951 89.051)" fill="#eef0f2"/>
      <rect id="Rectangle_1807" data-name="Rectangle 1807" width="25.652" height="210.844" transform="translate(16.475 89.051)" fill="#eef0f2"/>
    </g>
    <g id="Group_8004" data-name="Group 8004" transform="translate(57.804 382.475)">
      <path id="Path_15553" data-name="Path 15553" d="M91.818,274.008a161.647,161.647,0,0,0-1.043-16.893c-1.043-8.759-1.46-17.31,2.086-21.9s6.882-6.048,4.171-9.176-6.674,2.086-6.674,2.086-1.46-2.92-1.251-9.176c0,0-12.1-.417-13.347-10.636a18.236,18.236,0,0,1,5.631-15.85A20.075,20.075,0,0,0,66.375,186c-9.8.209-12.722,6.674-12.722,6.674l3.128-.417S47.4,200.6,50.734,212.069l2.294-1.46s.834,11.262-3.128,17.518l2.92-1.043s-.834,9.593-2.92,16.058l3.128-1.043s-1.877,24.609,2.294,32.325Z" transform="translate(-45.103 -186)" fill="#eef0f2"/>
      <path id="Path_15554" data-name="Path 15554" d="M68.088,188.9a6.271,6.271,0,0,1,5.214,5.005s6.882.417,8.133,1.043,1.043,4.588-.626,7.091c-1.46,2.5-2.294,2.5-2.294,2.5l-.209,1.668-.834-1.668s-3.128,0-4.171-1.46c0,0-3.754,0-3.545,3.337s3.754,3.128,5.005,2.92l1.043-1.251.626,2.085a1.9,1.9,0,0,1,1.668,1.877c0,1.668-.417,3.128-2.294,3.545s-11.47-1.251-13.347-10.636S68.088,188.9,68.088,188.9Z" transform="translate(-31.8 -182.852)" fill="#eef0f2"/>
      <path id="Path_15555" data-name="Path 15555" d="M87.85,227.1H67.2c-9.385,0-17.518,7.3-19.6,17.518h60.9l-2.711-5.631C102.031,231.688,95.149,227.1,87.85,227.1Z" transform="translate(-47.6 -141.386)" fill="#eef0f2"/>
    </g>
    <g id="Group_8007" data-name="Group 8007" transform="translate(1004.619 344.102)">
      <rect id="Rectangle_1808" data-name="Rectangle 1808" width="215.015" height="45.881" transform="translate(0 96.767)" fill="#eef0f2"/>
      <g id="Group_8005" data-name="Group 8005" transform="translate(24.4 66.11)">
        <rect id="Rectangle_1809" data-name="Rectangle 1809" width="2.92" height="26.277" fill="#eef0f2"/>
        <rect id="Rectangle_1810" data-name="Rectangle 1810" width="2.92" height="26.277" transform="translate(163.503)" fill="#eef0f2"/>
        <rect id="Rectangle_1811" data-name="Rectangle 1811" width="2.92" height="26.277" transform="translate(13.556)" fill="#eef0f2"/>
        <rect id="Rectangle_1812" data-name="Rectangle 1812" width="5.005" height="26.277" transform="translate(37.956)" fill="#eef0f2"/>
        <rect id="Rectangle_1813" data-name="Rectangle 1813" width="5.005" height="26.277" transform="translate(62.565)" fill="#eef0f2"/>
        <rect id="Rectangle_1814" data-name="Rectangle 1814" width="5.005" height="26.277" transform="translate(98.435)" fill="#eef0f2"/>
        <rect id="Rectangle_1815" data-name="Rectangle 1815" width="5.005" height="26.277" transform="translate(123.67)" fill="#eef0f2"/>
        <rect id="Rectangle_1816" data-name="Rectangle 1816" width="5.005" height="26.277" transform="translate(148.07)" fill="#eef0f2"/>
      </g>
      <path id="Path_15556" data-name="Path 15556" d="M688.972,202.159H518.379L506.7,193.4H700.651Z" transform="translate(-496.064 -139.594)" fill="#eef0f2"/>
      <rect id="Rectangle_1817" data-name="Rectangle 1817" width="137.851" height="22.106" transform="translate(38.79 31.491)" fill="#eef0f2"/>
      <g id="Group_8006" data-name="Group 8006" transform="translate(42.753 37.956)">
        <rect id="Rectangle_1818" data-name="Rectangle 1818" width="22.94" height="11.887" fill="#eef0f2"/>
        <rect id="Rectangle_1819" data-name="Rectangle 1819" width="22.94" height="11.887" transform="translate(26.694)" fill="#eef0f2"/>
        <rect id="Rectangle_1820" data-name="Rectangle 1820" width="22.94" height="11.887" transform="translate(53.389)" fill="#eef0f2"/>
        <rect id="Rectangle_1821" data-name="Rectangle 1821" width="22.94" height="11.887" transform="translate(80.083)" fill="#eef0f2"/>
        <rect id="Rectangle_1822" data-name="Rectangle 1822" width="22.94" height="11.887" transform="translate(106.777)" fill="#eef0f2"/>
      </g>
      <path id="Path_15557" data-name="Path 15557" d="M596.377,194.192l81.126-.209s-25.443-2.711-32.117-8.551S639.13,170,639.13,170h-2.294s-6.256,12.93-40.25,12.1h-1.668c-33.994.834-40.25-12.1-40.25-12.1h-2.294s.417,9.593-6.256,15.433S514,193.983,514,193.983l81.126.209h1.251Z" transform="translate(-488.14 -164.995)" fill="#eef0f2"/>
      <path id="Path_15558" data-name="Path 15558" d="M531.161,245.569H512.6v-9.593a9.123,9.123,0,0,1,9.176-9.176h0a9.123,9.123,0,0,1,9.176,9.176v9.593Z" transform="translate(-489.66 -103.339)" fill="#eef0f2"/>
      <path id="Path_15559" data-name="Path 15559" d="M550.606,247.523H528.5v-11.47A11.126,11.126,0,0,1,539.553,225h0a11.126,11.126,0,0,1,11.053,11.053Z" transform="translate(-472.4 -105.293)" fill="#eef0f2"/>
      <path id="Path_15560" data-name="Path 15560" d="M583.2,245.569h18.561v-9.593a9.123,9.123,0,0,0-9.176-9.176h0a9.123,9.123,0,0,0-9.176,9.176v9.593Z" transform="translate(-413.024 -103.339)" fill="#eef0f2"/>
      <path id="Path_15561" data-name="Path 15561" d="M565.7,247.523h22.106v-11.47A11.126,11.126,0,0,0,576.753,225h0A11.126,11.126,0,0,0,565.7,236.053Z" transform="translate(-432.02 -105.293)" fill="#eef0f2"/>
      <path id="Path_15562" data-name="Path 15562" d="M575.006,251.431H545.6V236.207A14.864,14.864,0,0,1,560.407,221.4h0a14.864,14.864,0,0,1,14.807,14.807v15.224Z" transform="translate(-453.838 -109.2)" fill="#eef0f2"/>
      <rect id="Rectangle_1823" data-name="Rectangle 1823" width="170.594" height="6.048" transform="translate(22.315 62.565)" fill="#eef0f2"/>
      <rect id="Rectangle_1824" data-name="Rectangle 1824" width="215.015" height="6.465" transform="translate(0 92.596)" fill="#eef0f2"/>
      <rect id="Rectangle_1825" data-name="Rectangle 1825" width="169.759" height="5.422" transform="translate(22.732 28.988)" fill="#eef0f2"/>
      <path id="Path_15563" data-name="Path 15563" d="M538.091,171.145a3.545,3.545,0,1,0-3.545,3.545A3.39,3.39,0,0,0,538.091,171.145Z" transform="translate(-469.686 -167.6)" fill="#eef0f2"/>
      <path id="Path_15564" data-name="Path 15564" d="M578.991,171.145a3.545,3.545,0,1,0-3.545,3.545A3.286,3.286,0,0,0,578.991,171.145Z" transform="translate(-425.29 -167.6)" fill="#eef0f2"/>
    </g>
    <g id="Group_8008" data-name="Group 8008" transform="translate(278.449 5)">
      <path id="Path_15565" data-name="Path 15565" d="M171.837,5,168.5,69.65h7.508Z" transform="translate(-137.009 -5)" fill="#eef0f2"/>
      <rect id="Rectangle_1826" data-name="Rectangle 1826" width="18.561" height="14.39" transform="translate(26.069 64.025)" fill="#eef0f2"/>
      <path id="Path_15566" data-name="Path 15566" d="M200.742,59.061H160.7A18.6,18.6,0,0,1,179.261,40.5h2.92a18.6,18.6,0,0,1,18.561,18.561Z" transform="translate(-145.476 33.535)" fill="#eef0f2"/>
      <path id="Path_15567" data-name="Path 15567" d="M184.887,414.633H165.7L168.828,69.9h12.93Z" transform="translate(-140.048 65.449)" fill="#eef0f2"/>
      <path id="Path_15568" data-name="Path 15568" d="M153.4,48.9l12.513,46.924h45.464L223.89,48.9Zm56.308,40.042H167.373V84.979h42.336Zm2.92-10.01H164.662V74.969h47.966Zm2.711-9.8h-53.18V65.167h53.18ZM159.865,58.91V54.948h57.768V58.91Z" transform="translate(-153.4 42.653)" fill="#eef0f2"/>
    </g>
    <g id="Group_8017" data-name="Group 8017" transform="translate(232.36 208.753)">
      <rect id="Rectangle_1827" data-name="Rectangle 1827" width="19.604" height="11.053" transform="translate(21.689 43.378)" fill="#eef0f2"/>
      <rect id="Rectangle_1828" data-name="Rectangle 1828" width="3.337" height="43.378" transform="translate(29.823)" fill="#eef0f2"/>
      <rect id="Rectangle_1829" data-name="Rectangle 1829" width="31.7" height="17.727" transform="translate(15.641 54.223)" fill="#eef0f2"/>
      <rect id="Rectangle_1830" data-name="Rectangle 1830" width="41.71" height="43.795" transform="translate(10.427 70.073)" fill="#eef0f2"/>
      <g id="Group_8009" data-name="Group 8009" transform="translate(5.631 111.366)">
        <rect id="Rectangle_1831" data-name="Rectangle 1831" width="51.512" height="54.223" fill="#eef0f2"/>
        <rect id="Rectangle_1832" data-name="Rectangle 1832" width="10.845" height="10.845" transform="translate(5.422 6.048)" fill="#eef0f2"/>
        <rect id="Rectangle_1833" data-name="Rectangle 1833" width="10.845" height="10.845" transform="translate(20.021 6.048)" fill="#eef0f2"/>
        <rect id="Rectangle_1834" data-name="Rectangle 1834" width="10.845" height="10.845" transform="translate(34.619 6.048)" fill="#eef0f2"/>
        <rect id="Rectangle_1835" data-name="Rectangle 1835" width="10.845" height="10.845" transform="translate(5.422 20.438)" fill="#eef0f2"/>
        <rect id="Rectangle_1836" data-name="Rectangle 1836" width="10.845" height="10.845" transform="translate(20.021 20.438)" fill="#eef0f2"/>
        <rect id="Rectangle_1837" data-name="Rectangle 1837" width="10.845" height="10.845" transform="translate(34.619 20.438)" fill="#eef0f2"/>
        <rect id="Rectangle_1838" data-name="Rectangle 1838" width="10.845" height="10.845" transform="translate(5.422 34.828)" fill="#eef0f2"/>
        <rect id="Rectangle_1839" data-name="Rectangle 1839" width="10.845" height="10.845" transform="translate(20.021 34.828)" fill="#eef0f2"/>
        <rect id="Rectangle_1840" data-name="Rectangle 1840" width="10.845" height="10.845" transform="translate(34.619 34.828)" fill="#eef0f2"/>
      </g>
      <path id="Path_15569" data-name="Path 15569" d="M160.2,209.884,181.889,193.2l22.732,17.31" transform="translate(-99.929 -4.463)" fill="#eef0f2"/>
      <rect id="Rectangle_1841" data-name="Rectangle 1841" width="42.127" height="8.342" transform="translate(61.105 183.524)" fill="#eef0f2"/>
      <rect id="Rectangle_1842" data-name="Rectangle 1842" width="62.773" height="116.371" transform="translate(0 160.375)" fill="#eef0f2"/>
      <g id="Group_8010" data-name="Group 8010" transform="translate(18.978 57.56)">
        <rect id="Rectangle_1843" data-name="Rectangle 1843" width="6.674" height="6.674" fill="#eef0f2"/>
        <rect id="Rectangle_1844" data-name="Rectangle 1844" width="6.674" height="6.674" transform="translate(8.968)" fill="#eef0f2"/>
        <rect id="Rectangle_1845" data-name="Rectangle 1845" width="6.674" height="6.674" transform="translate(18.144)" fill="#eef0f2"/>
      </g>
      <g id="Group_8011" data-name="Group 8011" transform="translate(16.058 75.704)">
        <rect id="Rectangle_1846" data-name="Rectangle 1846" width="8.342" height="8.342" fill="#eef0f2"/>
        <rect id="Rectangle_1847" data-name="Rectangle 1847" width="8.342" height="8.342" transform="translate(11.262)" fill="#eef0f2"/>
        <rect id="Rectangle_1848" data-name="Rectangle 1848" width="8.342" height="8.342" transform="translate(22.523)" fill="#eef0f2"/>
        <rect id="Rectangle_1849" data-name="Rectangle 1849" width="8.342" height="8.342" transform="translate(0 12.304)" fill="#eef0f2"/>
        <rect id="Rectangle_1850" data-name="Rectangle 1850" width="8.342" height="8.342" transform="translate(11.262 12.304)" fill="#eef0f2"/>
        <rect id="Rectangle_1851" data-name="Rectangle 1851" width="8.342" height="8.342" transform="translate(22.523 12.304)" fill="#eef0f2"/>
        <rect id="Rectangle_1852" data-name="Rectangle 1852" width="8.342" height="8.342" transform="translate(0 24.817)" fill="#eef0f2"/>
        <rect id="Rectangle_1853" data-name="Rectangle 1853" width="8.342" height="8.342" transform="translate(11.262 24.817)" fill="#eef0f2"/>
        <rect id="Rectangle_1854" data-name="Rectangle 1854" width="8.342" height="8.342" transform="translate(22.523 24.817)" fill="#eef0f2"/>
      </g>
      <g id="Group_8012" data-name="Group 8012" transform="translate(7.508 168.925)">
        <rect id="Rectangle_1855" data-name="Rectangle 1855" width="12.93" height="12.93" fill="#eef0f2"/>
        <rect id="Rectangle_1856" data-name="Rectangle 1856" width="12.93" height="12.93" transform="translate(17.518)" fill="#eef0f2"/>
        <rect id="Rectangle_1857" data-name="Rectangle 1857" width="12.93" height="12.93" transform="translate(34.828)" fill="#eef0f2"/>
        <rect id="Rectangle_1858" data-name="Rectangle 1858" width="12.93" height="12.93" transform="translate(0 17.31)" fill="#eef0f2"/>
        <rect id="Rectangle_1859" data-name="Rectangle 1859" width="12.93" height="12.93" transform="translate(17.518 17.31)" fill="#eef0f2"/>
        <rect id="Rectangle_1860" data-name="Rectangle 1860" width="12.93" height="12.93" transform="translate(34.828 17.31)" fill="#eef0f2"/>
        <rect id="Rectangle_1861" data-name="Rectangle 1861" width="12.93" height="12.93" transform="translate(0 34.619)" fill="#eef0f2"/>
        <rect id="Rectangle_1862" data-name="Rectangle 1862" width="12.93" height="12.93" transform="translate(17.518 34.619)" fill="#eef0f2"/>
        <rect id="Rectangle_1863" data-name="Rectangle 1863" width="12.93" height="12.93" transform="translate(34.828 34.619)" fill="#eef0f2"/>
      </g>
      <rect id="Rectangle_1864" data-name="Rectangle 1864" width="19.604" height="11.053" transform="translate(141.24 54.62) rotate(180)" fill="#eef0f2"/>
      <rect id="Rectangle_1865" data-name="Rectangle 1865" width="3.337" height="43.378" transform="translate(133.107 43.445) rotate(180)" fill="#eef0f2"/>
      <rect id="Rectangle_1866" data-name="Rectangle 1866" width="31.7" height="17.727" transform="translate(147.288 71.868) rotate(180)" fill="#eef0f2"/>
      <rect id="Rectangle_1867" data-name="Rectangle 1867" width="41.71" height="43.795" transform="translate(152.294 113.927) rotate(180)" fill="#eef0f2"/>
      <g id="Group_8013" data-name="Group 8013" transform="translate(105.787 111.184)">
        <rect id="Rectangle_1868" data-name="Rectangle 1868" width="51.512" height="54.223" transform="translate(51.512 54.223) rotate(180)" fill="#eef0f2"/>
        <rect id="Rectangle_1869" data-name="Rectangle 1869" width="10.845" height="10.845" transform="translate(45.93 16.938) rotate(180)" fill="#eef0f2"/>
        <rect id="Rectangle_1870" data-name="Rectangle 1870" width="10.845" height="10.845" transform="translate(31.31 16.938) rotate(180)" fill="#eef0f2"/>
        <rect id="Rectangle_1871" data-name="Rectangle 1871" width="10.845" height="10.845" transform="translate(16.69 16.938) rotate(180)" fill="#eef0f2"/>
        <rect id="Rectangle_1872" data-name="Rectangle 1872" width="10.845" height="10.845" transform="translate(45.93 31.335) rotate(180)" fill="#eef0f2"/>
        <rect id="Rectangle_1873" data-name="Rectangle 1873" width="10.845" height="10.845" transform="translate(31.31 31.335) rotate(180)" fill="#eef0f2"/>
        <rect id="Rectangle_1874" data-name="Rectangle 1874" width="10.845" height="10.845" transform="translate(16.69 31.335) rotate(180)" fill="#eef0f2"/>
        <rect id="Rectangle_1875" data-name="Rectangle 1875" width="10.845" height="10.845" transform="translate(45.93 45.732) rotate(180)" fill="#eef0f2"/>
        <rect id="Rectangle_1876" data-name="Rectangle 1876" width="10.845" height="10.845" transform="translate(31.31 45.732) rotate(180)" fill="#eef0f2"/>
        <rect id="Rectangle_1877" data-name="Rectangle 1877" width="10.845" height="10.845" transform="translate(16.69 45.732) rotate(180)" fill="#eef0f2"/>
      </g>
      <rect id="Rectangle_1878" data-name="Rectangle 1878" width="62.773" height="116.371" transform="translate(162.721 276.462) rotate(180)" fill="#eef0f2"/>
      <g id="Group_8014" data-name="Group 8014" transform="translate(119.032 57.538)">
        <rect id="Rectangle_1879" data-name="Rectangle 1879" width="6.674" height="6.674" transform="translate(24.814 6.674) rotate(180)" fill="#eef0f2"/>
        <rect id="Rectangle_1880" data-name="Rectangle 1880" width="6.674" height="6.674" transform="translate(15.744 6.674) rotate(180)" fill="#eef0f2"/>
        <rect id="Rectangle_1881" data-name="Rectangle 1881" width="6.674" height="6.674" transform="translate(6.674 6.674) rotate(180)" fill="#eef0f2"/>
      </g>
      <g id="Group_8015" data-name="Group 8015" transform="translate(115.989 75.619)">
        <rect id="Rectangle_1882" data-name="Rectangle 1882" width="8.342" height="8.342" transform="translate(30.898 8.342) rotate(180)" fill="#eef0f2"/>
        <rect id="Rectangle_1883" data-name="Rectangle 1883" width="8.342" height="8.342" transform="translate(19.62 8.342) rotate(180)" fill="#eef0f2"/>
        <rect id="Rectangle_1884" data-name="Rectangle 1884" width="8.342" height="8.342" transform="translate(8.342 8.342) rotate(180)" fill="#eef0f2"/>
        <rect id="Rectangle_1885" data-name="Rectangle 1885" width="8.342" height="8.342" transform="translate(30.898 20.864) rotate(180)" fill="#eef0f2"/>
        <rect id="Rectangle_1886" data-name="Rectangle 1886" width="8.342" height="8.342" transform="translate(19.62 20.864) rotate(180)" fill="#eef0f2"/>
        <rect id="Rectangle_1887" data-name="Rectangle 1887" width="8.342" height="8.342" transform="translate(8.342 20.864) rotate(180)" fill="#eef0f2"/>
        <rect id="Rectangle_1888" data-name="Rectangle 1888" width="8.342" height="8.342" transform="translate(30.898 33.177) rotate(180)" fill="#eef0f2"/>
        <rect id="Rectangle_1889" data-name="Rectangle 1889" width="8.342" height="8.342" transform="translate(19.62 33.177) rotate(180)" fill="#eef0f2"/>
        <rect id="Rectangle_1890" data-name="Rectangle 1890" width="8.342" height="8.342" transform="translate(8.342 33.177) rotate(180)" fill="#eef0f2"/>
      </g>
      <g id="Group_8016" data-name="Group 8016" transform="translate(107.549 169.107)">
        <rect id="Rectangle_1891" data-name="Rectangle 1891" width="12.93" height="12.93" transform="translate(47.779 12.93) rotate(180)" fill="#eef0f2"/>
        <rect id="Rectangle_1892" data-name="Rectangle 1892" width="12.93" height="12.93" transform="translate(30.354 12.93) rotate(180)" fill="#eef0f2"/>
        <rect id="Rectangle_1893" data-name="Rectangle 1893" width="12.93" height="12.93" transform="translate(12.93 12.93) rotate(180)" fill="#eef0f2"/>
        <rect id="Rectangle_1894" data-name="Rectangle 1894" width="12.93" height="12.93" transform="translate(47.779 30.046) rotate(180)" fill="#eef0f2"/>
        <rect id="Rectangle_1895" data-name="Rectangle 1895" width="12.93" height="12.93" transform="translate(30.354 30.046) rotate(180)" fill="#eef0f2"/>
        <rect id="Rectangle_1896" data-name="Rectangle 1896" width="12.93" height="12.93" transform="translate(12.93 30.046) rotate(180)" fill="#eef0f2"/>
        <rect id="Rectangle_1897" data-name="Rectangle 1897" width="12.93" height="12.93" transform="translate(47.779 47.163) rotate(180)" fill="#eef0f2"/>
        <rect id="Rectangle_1898" data-name="Rectangle 1898" width="12.93" height="12.93" transform="translate(30.354 47.163) rotate(180)" fill="#eef0f2"/>
        <rect id="Rectangle_1899" data-name="Rectangle 1899" width="12.93" height="12.93" transform="translate(12.93 47.163) rotate(180)" fill="#eef0f2"/>
      </g>
    </g>
    <g id="Group_8018" data-name="Group 8018" transform="translate(1333.085 121.788)">
      <path id="Path_15570" data-name="Path 15570" d="M721.665,72.1,659.1,144.258V412.036h62.565Zm-39.207,78.623H667.234v15.224h15.224Zm0,26.277H667.234v15.224h15.224Zm0,26.486H667.234V218.71h15.224Zm26.486,0H693.719V218.71h15.224Zm0-52.137H693.719v15.224h15.224Zm-26.486,78.623H667.234V245.2h15.224Zm26.486,0H693.719V245.2h15.224Zm0,78.623H693.719v15.224h15.224Zm-26.486-52.137H667.234v15.224h15.224Zm0,26.486H667.234v15.224h15.224Zm0,26.486H667.234v15.224h15.224Zm0,26.486H667.234v15.224h15.224Z" transform="translate(-659.1 -48.951)" fill="#eef0f2"/>
      <path id="Path_15571" data-name="Path 15571" d="M667.2,132.779V65h8.342v57.768" transform="translate(-650.307 -56.658)" fill="#eef0f2"/>
      <path id="Path_15572" data-name="Path 15572" d="M681.05,68.925a7.925,7.925,0,1,0-7.925,7.925A7.921,7.921,0,0,0,681.05,68.925Z" transform="translate(-652.478 -61)" fill="#eef0f2"/>
      <line id="Line_113" data-name="Line 113" x1="27.32" transform="translate(35.662 311.365)" fill="#fff"/>
      <line id="Line_114" data-name="Line 114" x1="17.518" transform="translate(45.464 304.482)" fill="#fff"/>
      <line id="Line_115" data-name="Line 115" x1="10.427" transform="translate(52.555 297.392)" fill="#fff"/>
      <line id="Line_116" data-name="Line 116" x1="39.207" transform="translate(23.775 317.83)" fill="#fff"/>
      <line id="Line_117" data-name="Line 117" x1="27.32" transform="translate(35.662 324.086)" fill="#fff"/>
      <line id="Line_118" data-name="Line 118" x1="34.411" transform="translate(28.571 330.551)" fill="#fff"/>
      <line id="Line_119" data-name="Line 119" x1="27.32" transform="translate(35.662 337.016)" fill="#fff"/>
      <line id="Line_120" data-name="Line 120" x1="53.597" transform="translate(9.385 343.481)" fill="#fff"/>
      <line id="Line_121" data-name="Line 121" x1="27.32" transform="translate(35.662 349.738)" fill="#fff"/>
    </g>
    <g id="Group_8024" data-name="Group 8024" transform="translate(1187.1 318.45)">
      <path id="Path_15573" data-name="Path 15573" d="M642.341,161.348H636.71V155.3h-4.171v6.048H626.7v4.588h5.839v12.93h4.171v-12.93h5.631Z" transform="translate(-548.285 -155.3)" fill="#eef0f2"/>
      <g id="Group_8020" data-name="Group 8020" transform="translate(43.17 21.063)">
        <rect id="Rectangle_1900" data-name="Rectangle 1900" width="33.785" height="19.812" transform="translate(26.277 13.973)" fill="#eef0f2"/>
        <path id="Path_15574" data-name="Path 15574" d="M637.576,182.991H628.4v-2.5a4.629,4.629,0,0,1,4.588-4.588h0a4.629,4.629,0,0,1,4.588,4.588Z" transform="translate(-589.61 -154.002)" fill="#eef0f2"/>
        <g id="Group_8019" data-name="Group 8019">
          <path id="Path_15575" data-name="Path 15575" d="M638.612,165.7H665.1a29.651,29.651,0,0,0,25.443,2.92s-5.631,14.181-38.373,15.224S611.5,168.62,611.5,168.62,630.478,173.208,638.612,165.7Z" transform="translate(-607.955 -165.074)" fill="#eef0f2"/>
          <path id="Path_15576" data-name="Path 15576" d="M613.971,167.486a2.09,2.09,0,0,0-2.085-2.086,1.97,1.97,0,0,0-2.085,2.086,2.09,2.09,0,0,0,2.085,2.086A1.97,1.97,0,0,0,613.971,167.486Z" transform="translate(-609.8 -165.4)" fill="#eef0f2"/>
          <path id="Path_15577" data-name="Path 15577" d="M653.271,167.486a2.085,2.085,0,1,0-2.085,2.086A2.09,2.09,0,0,0,653.271,167.486Z" transform="translate(-567.14 -165.4)" fill="#eef0f2"/>
        </g>
      </g>
      <g id="Group_8022" data-name="Group 8022" transform="translate(21.481 52.763)">
        <rect id="Rectangle_1901" data-name="Rectangle 1901" width="67.362" height="26.903" transform="translate(31.282 22.94)" fill="#eef0f2"/>
        <g id="Group_8021" data-name="Group 8021" transform="translate(38.999 33.368)">
          <rect id="Rectangle_1902" data-name="Rectangle 1902" width="9.176" height="7.091" fill="#eef0f2"/>
          <rect id="Rectangle_1903" data-name="Rectangle 1903" width="9.176" height="7.091" transform="translate(21.272)" fill="#eef0f2"/>
          <rect id="Rectangle_1904" data-name="Rectangle 1904" width="9.176" height="7.091" transform="translate(42.544)" fill="#eef0f2"/>
        </g>
        <path id="Path_15578" data-name="Path 15578" d="M646.281,180.6h33.994s22.94,10.219,45.672,4.8c0,0-8.968,22.523-60.9,24.192S600.4,185.4,600.4,185.4,632.1,190.4,646.281,180.6Z" transform="translate(-598.315 -180.6)" fill="#eef0f2"/>
        <path id="Path_15579" data-name="Path 15579" d="M603.571,183.185a2.086,2.086,0,1,0-2.085,2.086A1.97,1.97,0,0,0,603.571,183.185Z" transform="translate(-599.4 -180.057)" fill="#eef0f2"/>
        <path id="Path_15580" data-name="Path 15580" d="M663.671,183.185a2.085,2.085,0,1,0-2.085,2.086A1.97,1.97,0,0,0,663.671,183.185Z" transform="translate(-534.162 -180.057)" fill="#eef0f2"/>
      </g>
      <g id="Group_8023" data-name="Group 8023" transform="translate(0 97.601)">
        <rect id="Rectangle_1905" data-name="Rectangle 1905" width="101.981" height="37.33" transform="translate(36.496 27.529)" fill="#eef0f2"/>
        <path id="Path_15581" data-name="Path 15581" d="M624.962,240.264H613.7v-8.133a5.608,5.608,0,0,1,5.631-5.631h0a5.607,5.607,0,0,1,5.631,5.631Z" transform="translate(-562.397 -175.614)" fill="#eef0f2"/>
        <path id="Path_15582" data-name="Path 15582" d="M653.162,240.264H641.9v-8.133a5.607,5.607,0,0,1,5.631-5.631h0a5.607,5.607,0,0,1,5.631,5.631Z" transform="translate(-531.786 -175.614)" fill="#eef0f2"/>
        <path id="Path_15583" data-name="Path 15583" d="M643.267,243.412H627V231.733a8.143,8.143,0,0,1,8.133-8.133h0a8.144,8.144,0,0,1,8.133,8.133v11.679Z" transform="translate(-547.96 -178.762)" fill="#eef0f2"/>
        <path id="Path_15584" data-name="Path 15584" d="M641.061,202.1h67.362s19.187,13.556,49.426,6.257c0,0-11.887,30.031-81.126,32.117S590.8,208.357,590.8,208.357,622.082,215.239,641.061,202.1Z" transform="translate(-587.255 -202.1)" fill="#eef0f2"/>
        <path id="Path_15585" data-name="Path 15585" d="M593.271,205.685a2.085,2.085,0,1,0-2.085,2.086A2.234,2.234,0,0,0,593.271,205.685Z" transform="translate(-589.1 -200.472)" fill="#eef0f2"/>
        <circle id="Ellipse_222" data-name="Ellipse 222" cx="2.085" cy="2.085" r="2.085" transform="translate(168.3 3.128)" fill="#eef0f2"/>
      </g>
      <rect id="Rectangle_1906" data-name="Rectangle 1906" width="138.268" height="7.299" transform="translate(17.101 161.209)" fill="#eef0f2"/>
    </g>
    <g id="Group_8025" data-name="Group 8025" transform="translate(750.188 287.168)">
      <circle id="Ellipse_223" data-name="Ellipse 223" cx="73.618" cy="73.618" r="73.618" transform="translate(22.941 23.566)" fill="#eef0f2"/>
      <circle id="Ellipse_224" data-name="Ellipse 224" cx="90.719" cy="90.719" r="90.719" transform="translate(5.839 6.465)" fill="#eef0f2"/>
      <line id="Line_122" data-name="Line 122" x2="181.23" transform="translate(6.048 97.184)" fill="none"/>
      <line id="Line_123" data-name="Line 123" y1="183.315" transform="translate(96.559 5.631)" fill="none"/>
      <line id="Line_124" data-name="Line 124" x2="172.262" y2="56.517" transform="translate(10.428 69.03)" fill="none"/>
      <line id="Line_125" data-name="Line 125" y1="174.139" x2="56.934" transform="translate(68.196 10.219)" fill="none"/>
      <line id="Line_126" data-name="Line 126" x2="146.193" y2="107.403" transform="translate(23.566 43.587)" fill="none"/>
      <line id="Line_127" data-name="Line 127" y1="147.862" x2="108.654" transform="translate(42.336 23.358)" fill="none"/>
      <line id="Line_128" data-name="Line 128" x2="105.735" y2="147.027" transform="translate(43.795 23.775)" fill="none"/>
      <line id="Line_129" data-name="Line 129" y1="106.986" x2="148.904" transform="translate(22.106 43.795)" fill="none"/>
      <line id="Line_130" data-name="Line 130" x2="54.849" y2="172.888" transform="translate(69.239 10.845)" fill="none"/>
      <line id="Line_131" data-name="Line 131" y1="55.474" x2="174.765" transform="translate(9.176 69.447)" fill="none"/>
      <path id="Path_15586" data-name="Path 15586" d="M434.562,145.931a5.631,5.631,0,1,0-5.631,5.631A5.744,5.744,0,0,0,434.562,145.931Z" transform="translate(-332.164 -140.3)" fill="#eef0f2"/>
      <path id="Path_15587" data-name="Path 15587" d="M434.562,233.131a5.631,5.631,0,1,0-5.631,5.631C431.851,238.97,434.562,236.259,434.562,233.131Z" transform="translate(-332.164 -45.645)" fill="#eef0f2"/>
      <path id="Path_15588" data-name="Path 15588" d="M472.537,195.162a5.631,5.631,0,1,0-5.631-5.631A5.48,5.48,0,0,0,472.537,195.162Z" transform="translate(-284.842 -92.972)" fill="#eef0f2"/>
      <path id="Path_15589" data-name="Path 15589" d="M385.231,195.162a5.631,5.631,0,1,0-5.631-5.631A5.608,5.608,0,0,0,385.231,195.162Z" transform="translate(-379.6 -92.972)" fill="#eef0f2"/>
      <path id="Path_15590" data-name="Path 15590" d="M472.053,181.3a5.606,5.606,0,1,0-7.091-3.545A5.6,5.6,0,0,0,472.053,181.3Z" transform="translate(-287.278 -107.68)" fill="#eef0f2"/>
      <path id="Path_15591" data-name="Path 15591" d="M389.153,208.5a5.606,5.606,0,1,0-7.091-3.545A5.6,5.6,0,0,0,389.153,208.5Z" transform="translate(-377.266 -78.155)" fill="#eef0f2"/>
      <path id="Path_15592" data-name="Path 15592" d="M468.666,208.506a5.673,5.673,0,1,0-3.754-7.091A5.9,5.9,0,0,0,468.666,208.506Z" transform="translate(-287.227 -78.371)" fill="#eef0f2"/>
      <path id="Path_15593" data-name="Path 15593" d="M385.666,181.506a5.673,5.673,0,1,0-3.754-7.091A5.9,5.9,0,0,0,385.666,181.506Z" transform="translate(-377.324 -107.68)" fill="#eef0f2"/>
      <path id="Path_15594" data-name="Path 15594" d="M467.693,168.744a5.673,5.673,0,1,0-7.925-1.251C461.436,170,464.982,170.413,467.693,168.744Z" transform="translate(-293.762 -120.569)" fill="#eef0f2"/>
      <path id="Path_15595" data-name="Path 15595" d="M396.793,219.644a5.673,5.673,0,1,0-7.925-1.251A5.878,5.878,0,0,0,396.793,219.644Z" transform="translate(-370.724 -65.317)" fill="#eef0f2"/>
      <path id="Path_15596" data-name="Path 15596" d="M459.044,157.593a5.673,5.673,0,1,0-7.925,1.251A5.68,5.68,0,0,0,459.044,157.593Z" transform="translate(-304.509 -131.316)" fill="#eef0f2"/>
      <path id="Path_15597" data-name="Path 15597" d="M407.944,228.193a5.673,5.673,0,1,0-7.925,1.251A5.5,5.5,0,0,0,407.944,228.193Z" transform="translate(-359.978 -54.68)" fill="#eef0f2"/>
      <path id="Path_15598" data-name="Path 15598" d="M447.8,149.853a5.606,5.606,0,1,0-7.091,3.545A5.685,5.685,0,0,0,447.8,149.853Z" transform="translate(-317.455 -137.966)" fill="#eef0f2"/>
      <path id="Path_15599" data-name="Path 15599" d="M420.7,232.753a5.606,5.606,0,1,0-7.091,3.545A5.44,5.44,0,0,0,420.7,232.753Z" transform="translate(-346.872 -47.978)" fill="#eef0f2"/>
      <path id="Path_15600" data-name="Path 15600" d="M420.7,146.308a5.606,5.606,0,1,0-3.545,7.091A5.6,5.6,0,0,0,420.7,146.308Z" transform="translate(-346.872 -137.966)" fill="#eef0f2"/>
      <path id="Path_15601" data-name="Path 15601" d="M447.7,229.208a5.606,5.606,0,1,0-3.545,7.091A5.439,5.439,0,0,0,447.7,229.208Z" transform="translate(-317.563 -47.978)" fill="#eef0f2"/>
      <path id="Path_15602" data-name="Path 15602" d="M407.944,150.919a5.673,5.673,0,1,0-1.251,7.925A5.878,5.878,0,0,0,407.944,150.919Z" transform="translate(-359.978 -131.316)" fill="#eef0f2"/>
      <path id="Path_15603" data-name="Path 15603" d="M459.044,221.519a5.673,5.673,0,1,0-1.251,7.925A5.618,5.618,0,0,0,459.044,221.519Z" transform="translate(-304.509 -54.68)" fill="#eef0f2"/>
      <path id="Path_15604" data-name="Path 15604" d="M396.793,159.568a5.673,5.673,0,1,0,1.251,7.925A5.618,5.618,0,0,0,396.793,159.568Z" transform="translate(-370.724 -120.569)" fill="#eef0f2"/>
      <path id="Path_15605" data-name="Path 15605" d="M467.693,210.368a5.673,5.673,0,1,0,1.251,7.925A5.68,5.68,0,0,0,467.693,210.368Z" transform="translate(-293.762 -65.426)" fill="#eef0f2"/>
      <path id="Path_15606" data-name="Path 15606" d="M522.375,291.129l-54.64-72.784V183.1H454.388v31.074L393.7,293.423h10.636l50.052-66.11v68.821h13.347V231.275L513.2,291.337Z" transform="translate(-364.294 -93.841)" fill="#eef0f2"/>
    </g>
    <g id="Group_8034" data-name="Group 8034" transform="translate(377.093 260.473)">
      <rect id="Rectangle_1907" data-name="Rectangle 1907" width="256.933" height="43.378" transform="translate(6.674 182.064)" fill="#eef0f2"/>
      <path id="Path_15607" data-name="Path 15607" d="M225.984,252.994H209.3V227.342A8.367,8.367,0,0,1,217.642,219h0a8.367,8.367,0,0,1,8.342,8.342Z" transform="translate(-191.365 -28.177)" fill="#eef0f2"/>
      <path id="Path_15608" data-name="Path 15608" d="M243.484,252.994H226.8V227.342A8.367,8.367,0,0,1,235.142,219h0a8.367,8.367,0,0,1,8.342,8.342Z" transform="translate(-172.369 -28.177)" fill="#eef0f2"/>
      <path id="Path_15609" data-name="Path 15609" d="M260.884,252.994H244.2V227.342A8.367,8.367,0,0,1,252.542,219h0a8.367,8.367,0,0,1,8.342,8.342Z" transform="translate(-153.481 -28.177)" fill="#eef0f2"/>
      <path id="Path_15610" data-name="Path 15610" d="M278.284,252.994H261.6V227.342A8.367,8.367,0,0,1,269.942,219h0a8.367,8.367,0,0,1,8.342,8.342Z" transform="translate(-134.593 -28.177)" fill="#eef0f2"/>
      <path id="Path_15611" data-name="Path 15611" d="M295.784,252.994H279.1V227.342A8.367,8.367,0,0,1,287.442,219h0a8.367,8.367,0,0,1,8.342,8.342Z" transform="translate(-115.597 -28.177)" fill="#eef0f2"/>
      <path id="Path_15612" data-name="Path 15612" d="M313.184,252.994H296.5V227.342A8.366,8.366,0,0,1,304.842,219h0a8.367,8.367,0,0,1,8.342,8.342Z" transform="translate(-96.709 -28.177)" fill="#eef0f2"/>
      <path id="Path_15613" data-name="Path 15613" d="M330.584,252.994H313.9V227.342A8.366,8.366,0,0,1,322.242,219h0a8.366,8.366,0,0,1,8.342,8.342Z" transform="translate(-77.822 -28.177)" fill="#eef0f2"/>
      <g id="Group_8027" data-name="Group 8027" transform="translate(227.736 114.494)">
        <rect id="Rectangle_1908" data-name="Rectangle 1908" width="33.785" height="21.898" transform="translate(3.128 41.918)" fill="#eef0f2"/>
        <g id="Group_8026" data-name="Group 8026" transform="translate(6.465 45.881)">
          <path id="Path_15614" data-name="Path 15614" d="M317.8,222.127H313V206.694a2.314,2.314,0,0,1,2.294-2.294h0a2.314,2.314,0,0,1,2.294,2.294v15.433Z" transform="translate(-313 -204.4)" fill="#eef0f2"/>
          <path id="Path_15615" data-name="Path 15615" d="M322.988,222.127H318.4V206.694a2.314,2.314,0,0,1,2.294-2.294h0a2.314,2.314,0,0,1,2.294,2.294Z" transform="translate(-307.138 -204.4)" fill="#eef0f2"/>
          <path id="Path_15616" data-name="Path 15616" d="M328.288,222.127H323.7V206.694a2.314,2.314,0,0,1,2.294-2.294h0a2.314,2.314,0,0,1,2.294,2.294Z" transform="translate(-301.385 -204.4)" fill="#eef0f2"/>
        </g>
        <path id="Path_15617" data-name="Path 15617" d="M345.294,212.181H311.3v-4.588A16.822,16.822,0,0,1,328.193,190.7h0a16.822,16.822,0,0,1,16.893,16.893v4.588Z" transform="translate(-308.38 -173.39)" fill="#eef0f2"/>
        <path id="Path_15618" data-name="Path 15618" d="M320.168,182.4,318.5,199.918h3.962Z" transform="translate(-300.565 -182.4)" fill="#eef0f2"/>
        <rect id="Rectangle_1909" data-name="Rectangle 1909" width="40.042" height="4.797" transform="translate(0 38.165)" fill="#eef0f2"/>
      </g>
      <g id="Group_8029" data-name="Group 8029" transform="translate(184.358 76.955)">
        <rect id="Rectangle_1910" data-name="Rectangle 1910" width="33.785" height="21.898" transform="translate(3.128 41.918)" fill="#eef0f2"/>
        <g id="Group_8028" data-name="Group 8028" transform="translate(6.674 46.089)">
          <path id="Path_15619" data-name="Path 15619" d="M296.888,204.227H292.3V188.794a2.314,2.314,0,0,1,2.294-2.294h0a2.314,2.314,0,0,1,2.294,2.294Z" transform="translate(-292.3 -186.5)" fill="#eef0f2"/>
          <path id="Path_15620" data-name="Path 15620" d="M302.188,204.227H297.6V188.794a2.314,2.314,0,0,1,2.294-2.294h0a2.314,2.314,0,0,1,2.294,2.294Z" transform="translate(-286.547 -186.5)" fill="#eef0f2"/>
          <path id="Path_15621" data-name="Path 15621" d="M307.488,204.227H302.9V188.794a2.314,2.314,0,0,1,2.294-2.294h0a2.314,2.314,0,0,1,2.294,2.294Z" transform="translate(-280.794 -186.5)" fill="#eef0f2"/>
        </g>
        <path id="Path_15622" data-name="Path 15622" d="M324.494,194.181H290.5v-4.588A16.822,16.822,0,0,1,307.393,172.7h0a16.822,16.822,0,0,1,16.893,16.893v4.588Z" transform="translate(-287.58 -155.39)" fill="#eef0f2"/>
        <path id="Path_15623" data-name="Path 15623" d="M299.368,164.4,297.7,181.918h3.962Z" transform="translate(-279.765 -164.4)" fill="#eef0f2"/>
        <rect id="Rectangle_1911" data-name="Rectangle 1911" width="40.042" height="4.797" transform="translate(0 38.165)" fill="#eef0f2"/>
      </g>
      <g id="Group_8031" data-name="Group 8031" transform="translate(3.123 114.494)">
        <rect id="Rectangle_1912" data-name="Rectangle 1912" width="33.785" height="21.898" transform="translate(36.913 63.817) rotate(180)" fill="#eef0f2"/>
        <g id="Group_8030" data-name="Group 8030" transform="translate(6.678 45.881)">
          <path id="Path_15624" data-name="Path 15624" d="M216,222.127h4.588V206.694a2.314,2.314,0,0,0-2.294-2.294h0A2.314,2.314,0,0,0,216,206.694v15.433Z" transform="translate(-193.894 -204.4)" fill="#eef0f2"/>
          <path id="Path_15625" data-name="Path 15625" d="M210.7,222.127h4.588V206.694a2.314,2.314,0,0,0-2.294-2.294h0a2.314,2.314,0,0,0-2.294,2.294v15.433Z" transform="translate(-199.647 -204.4)" fill="#eef0f2"/>
          <path id="Path_15626" data-name="Path 15626" d="M205.4,222.127h4.588V206.694a2.314,2.314,0,0,0-2.294-2.294h0a2.314,2.314,0,0,0-2.294,2.294v15.433Z" transform="translate(-205.4 -204.4)" fill="#eef0f2"/>
        </g>
        <path id="Path_15627" data-name="Path 15627" d="M203.7,212.181h33.994v-4.588A16.822,16.822,0,0,0,220.8,190.7h0a16.822,16.822,0,0,0-16.893,16.893v4.588Z" transform="translate(-200.567 -173.39)" fill="#eef0f2"/>
        <path id="Path_15628" data-name="Path 15628" d="M213.3,182.4l1.46,17.518H210.8Z" transform="translate(-192.86 -182.4)" fill="#eef0f2"/>
        <rect id="Rectangle_1913" data-name="Rectangle 1913" width="40.042" height="4.797" transform="translate(40.042 43.062) rotate(180)" fill="#eef0f2"/>
      </g>
      <g id="Group_8033" data-name="Group 8033" transform="translate(45.557 76.955)">
        <rect id="Rectangle_1914" data-name="Rectangle 1914" width="33.785" height="21.898" transform="translate(36.913 63.832) rotate(180)" fill="#eef0f2"/>
        <g id="Group_8032" data-name="Group 8032" transform="translate(6.58 46.089)">
          <path id="Path_15629" data-name="Path 15629" d="M236.3,204.227h4.588V188.794a2.314,2.314,0,0,0-2.294-2.294h0a2.314,2.314,0,0,0-2.294,2.294v15.433Z" transform="translate(-214.194 -186.5)" fill="#eef0f2"/>
          <path id="Path_15630" data-name="Path 15630" d="M231,204.227h4.588V188.794a2.314,2.314,0,0,0-2.294-2.294h0A2.314,2.314,0,0,0,231,188.794Z" transform="translate(-219.947 -186.5)" fill="#eef0f2"/>
          <path id="Path_15631" data-name="Path 15631" d="M225.7,204.227h4.588V188.794a2.314,2.314,0,0,0-2.294-2.294h0a2.314,2.314,0,0,0-2.294,2.294v15.433Z" transform="translate(-225.7 -186.5)" fill="#eef0f2"/>
        </g>
        <path id="Path_15632" data-name="Path 15632" d="M224,194.181h33.994v-4.588A16.822,16.822,0,0,0,241.1,172.7h0a16.822,16.822,0,0,0-16.893,16.893v4.588Z" transform="translate(-220.965 -155.39)" fill="#eef0f2"/>
        <path id="Path_15633" data-name="Path 15633" d="M233.494,164.4l1.668,17.518H231.2Z" transform="translate(-213.149 -164.4)" fill="#eef0f2"/>
        <rect id="Rectangle_1915" data-name="Rectangle 1915" width="40.042" height="4.797" transform="translate(40.042 43.078) rotate(180)" fill="#eef0f2"/>
      </g>
      <rect id="Rectangle_1916" data-name="Rectangle 1916" width="167.674" height="35.245" transform="translate(51.303 143.482)" fill="#eef0f2"/>
      <rect id="Rectangle_1917" data-name="Rectangle 1917" width="10.636" height="10.636" transform="translate(61.455 162.581) rotate(-45)" fill="#eef0f2"/>
      <rect id="Rectangle_1918" data-name="Rectangle 1918" width="10.636" height="10.636" transform="translate(94.421 162.627) rotate(-45)" fill="#eef0f2"/>
      <rect id="Rectangle_1919" data-name="Rectangle 1919" width="10.636" height="10.636" transform="translate(127.534 162.515) rotate(-45)" fill="#eef0f2"/>
      <rect id="Rectangle_1920" data-name="Rectangle 1920" width="10.636" height="10.636" transform="translate(160.5 162.551) rotate(-45)" fill="#eef0f2"/>
      <rect id="Rectangle_1921" data-name="Rectangle 1921" width="10.636" height="10.636" transform="translate(193.465 162.588) rotate(-45)" fill="#eef0f2"/>
      <rect id="Rectangle_1922" data-name="Rectangle 1922" width="79.666" height="30.448" transform="translate(95.099 110.531)" fill="#eef0f2"/>
      <path id="Path_15634" data-name="Path 15634" d="M279.144,209.469H261v-17.1a8.9,8.9,0,0,1,8.968-8.968h0a8.9,8.9,0,0,1,8.968,8.968v17.1Z" transform="translate(-135.245 -66.821)" fill="#eef0f2"/>
      <rect id="Rectangle_1923" data-name="Rectangle 1923" width="76.121" height="31.282" transform="translate(97.184 72.158)" fill="#eef0f2"/>
      <path id="Path_15635" data-name="Path 15635" d="M257.133,184.733H249V173.471a4.183,4.183,0,0,1,4.171-4.171h0a4.183,4.183,0,0,1,4.171,4.171Z" transform="translate(-148.271 -82.126)" fill="#eef0f2"/>
      <path id="Path_15636" data-name="Path 15636" d="M264.533,184.733H256.4V173.471a4.183,4.183,0,0,1,4.171-4.171h0a4.183,4.183,0,0,1,4.171,4.171v11.262Z" transform="translate(-140.238 -82.126)" fill="#eef0f2"/>
      <path id="Path_15637" data-name="Path 15637" d="M271.833,184.733H263.7V173.471a4.183,4.183,0,0,1,4.171-4.171h0a4.183,4.183,0,0,1,4.171,4.171v11.262Z" transform="translate(-132.314 -82.126)" fill="#eef0f2"/>
      <path id="Path_15638" data-name="Path 15638" d="M279.133,184.733H271V173.471a4.183,4.183,0,0,1,4.171-4.171h0a4.183,4.183,0,0,1,4.171,4.171v11.262Z" transform="translate(-124.39 -82.126)" fill="#eef0f2"/>
      <path id="Path_15639" data-name="Path 15639" d="M286.533,184.733H278.4V173.471a4.183,4.183,0,0,1,4.171-4.171h0a4.183,4.183,0,0,1,4.171,4.171v11.262Z" transform="translate(-116.357 -82.126)" fill="#eef0f2"/>
      <path id="Path_15640" data-name="Path 15640" d="M282.545,144.1s-5.005,4.8-17.935,11.679c-12.722,6.882-16.267,17.518-17.31,25.86h76.121s-1.46-15.016-11.47-21.481-16.893-9.8-23.775-16.058Z" transform="translate(-150.116 -109.481)" fill="#eef0f2"/>
      <path id="Path_15641" data-name="Path 15641" d="M265,154.82l1.043-27.32,1.251,27.111Z" transform="translate(-130.903 -127.5)" fill="#eef0f2"/>
      <rect id="Rectangle_1924" data-name="Rectangle 1924" width="177.893" height="5.214" transform="translate(46.089 140.354)" fill="#eef0f2"/>
      <rect id="Rectangle_1925" data-name="Rectangle 1925" width="270.072" height="5.839" transform="translate(0 178.101)" fill="#eef0f2"/>
      <path id="Path_15642" data-name="Path 15642" d="M272.893,137.3a4.8,4.8,0,1,0-4.8,4.8A4.851,4.851,0,0,0,272.893,137.3Z" transform="translate(-132.748 -122.073)" fill="#eef0f2"/>
      <path id="Path_15643" data-name="Path 15643" d="M273.21,144.705a5.005,5.005,0,1,0-5.005,5.005A4.94,4.94,0,0,0,273.21,144.705Z" transform="translate(-132.856 -114.257)" fill="#eef0f2"/>
      <rect id="Rectangle_1926" data-name="Rectangle 1926" width="89.259" height="10.427" transform="translate(90.093 102.398)" fill="#eef0f2"/>
    </g>
    <g id="Group_8044" data-name="Group 8044" transform="translate(136.844 387.272)">
      <rect id="Rectangle_1927" data-name="Rectangle 1927" width="141.814" height="7.091" transform="translate(5.631 84.671)" fill="#eef0f2"/>
      <g id="Group_8043" data-name="Group 8043" transform="translate(10.427 39.624)">
        <g id="Group_8035" data-name="Group 8035">
          <rect id="Rectangle_1928" data-name="Rectangle 1928" width="6.882" height="42.336" transform="translate(1.043 2.503)" fill="#eef0f2"/>
          <rect id="Rectangle_1929" data-name="Rectangle 1929" width="8.968" height="3.128" fill="#eef0f2"/>
        </g>
        <g id="Group_8036" data-name="Group 8036" transform="translate(123.461)">
          <rect id="Rectangle_1930" data-name="Rectangle 1930" width="6.882" height="42.336" transform="translate(1.043 2.503)" fill="#eef0f2"/>
          <rect id="Rectangle_1931" data-name="Rectangle 1931" width="8.968" height="3.128" fill="#eef0f2"/>
        </g>
        <g id="Group_8037" data-name="Group 8037" transform="translate(105.735)">
          <rect id="Rectangle_1932" data-name="Rectangle 1932" width="6.882" height="42.336" transform="translate(1.251 2.503)" fill="#eef0f2"/>
          <rect id="Rectangle_1933" data-name="Rectangle 1933" width="8.968" height="3.128" fill="#eef0f2"/>
        </g>
        <g id="Group_8038" data-name="Group 8038" transform="translate(88.217)">
          <rect id="Rectangle_1934" data-name="Rectangle 1934" width="6.882" height="42.336" transform="translate(1.043 2.503)" fill="#eef0f2"/>
          <rect id="Rectangle_1935" data-name="Rectangle 1935" width="8.968" height="3.128" fill="#eef0f2"/>
        </g>
        <g id="Group_8039" data-name="Group 8039" transform="translate(70.49)">
          <rect id="Rectangle_1936" data-name="Rectangle 1936" width="6.882" height="42.336" transform="translate(1.251 2.503)" fill="#eef0f2"/>
          <rect id="Rectangle_1937" data-name="Rectangle 1937" width="8.968" height="3.128" fill="#eef0f2"/>
        </g>
        <g id="Group_8040" data-name="Group 8040" transform="translate(52.763)">
          <rect id="Rectangle_1938" data-name="Rectangle 1938" width="6.882" height="42.336" transform="translate(1.251 2.503)" fill="#eef0f2"/>
          <rect id="Rectangle_1939" data-name="Rectangle 1939" width="8.968" height="3.128" fill="#eef0f2"/>
        </g>
        <g id="Group_8041" data-name="Group 8041" transform="translate(35.245)">
          <rect id="Rectangle_1940" data-name="Rectangle 1940" width="6.882" height="42.336" transform="translate(1.043 2.503)" fill="#eef0f2"/>
          <rect id="Rectangle_1941" data-name="Rectangle 1941" width="8.968" height="3.128" fill="#eef0f2"/>
        </g>
        <g id="Group_8042" data-name="Group 8042" transform="translate(17.518)">
          <rect id="Rectangle_1942" data-name="Rectangle 1942" width="6.882" height="42.336" transform="translate(1.251 2.503)" fill="#eef0f2"/>
          <rect id="Rectangle_1943" data-name="Rectangle 1943" width="8.968" height="3.128" fill="#eef0f2"/>
        </g>
      </g>
      <rect id="Rectangle_1944" data-name="Rectangle 1944" width="138.06" height="6.674" transform="translate(7.508 32.951)" fill="#eef0f2"/>
      <rect id="Rectangle_1945" data-name="Rectangle 1945" width="133.472" height="11.47" transform="translate(9.802 21.481)" fill="#eef0f2"/>
      <path id="Path_15644" data-name="Path 15644" d="M92.1,202.481l30.24-8.133V198.1l9.176-2.711v-3.337L146.74,188.3v2.711h6.674v4.38l6.048-3.337,58.185,14.39H92.309Z" transform="translate(-78.336 -188.3)" fill="#eef0f2"/>
      <rect id="Rectangle_1946" data-name="Rectangle 1946" width="153.284" height="7.091" transform="translate(0 90.511)" fill="#eef0f2"/>
      <rect id="Rectangle_1947" data-name="Rectangle 1947" width="138.477" height="3.754" transform="translate(7.299 17.727)" fill="#eef0f2"/>
      <rect id="Rectangle_1948" data-name="Rectangle 1948" width="13.973" height="5.214" transform="translate(14.39 24.817)" fill="#eef0f2"/>
      <rect id="Rectangle_1949" data-name="Rectangle 1949" width="13.973" height="5.214" transform="translate(36.496 24.817)" fill="#eef0f2"/>
      <rect id="Rectangle_1950" data-name="Rectangle 1950" width="13.973" height="5.214" transform="translate(58.394 24.817)" fill="#eef0f2"/>
      <rect id="Rectangle_1951" data-name="Rectangle 1951" width="13.973" height="5.214" transform="translate(80.5 24.817)" fill="#eef0f2"/>
      <rect id="Rectangle_1952" data-name="Rectangle 1952" width="13.973" height="5.214" transform="translate(102.398 24.817)" fill="#eef0f2"/>
      <rect id="Rectangle_1953" data-name="Rectangle 1953" width="13.973" height="5.214" transform="translate(124.504 24.817)" fill="#eef0f2"/>
    </g>
    <g id="Group_8045" data-name="Group 8045" transform="translate(628.813 286.542)">
      <path id="Path_15645" data-name="Path 15645" d="M431.356,174.162l-81.96.209L337.3,170.2H443.66Z" transform="translate(-304.141 -107.218)" fill="#eef0f2"/>
      <rect id="Rectangle_1954" data-name="Rectangle 1954" width="82.169" height="19.604" transform="translate(45.255 66.944)" fill="#eef0f2"/>
      <path id="Path_15646" data-name="Path 15646" d="M409.1,171.281c-11.679-16.267-15.85-21.272-19.812-21.481h0c-3.962.209-8.133,5.214-19.812,21.481S338.4,189.424,338.4,189.424H440.172S420.986,187.547,409.1,171.281Z" transform="translate(-302.947 -129.362)" fill="#eef0f2"/>
      <rect id="Rectangle_1955" data-name="Rectangle 1955" width="9.176" height="5.005" transform="translate(81.751 16.893)" fill="#eef0f2"/>
      <rect id="Rectangle_1956" data-name="Rectangle 1956" width="3.337" height="8.968" transform="translate(84.671 9.176)" fill="#eef0f2"/>
      <circle id="Ellipse_225" data-name="Ellipse 225" cx="5.214" cy="5.214" r="5.214" transform="translate(81.126)" fill="#eef0f2"/>
      <path id="Path_15647" data-name="Path 15647" d="M358.08,181.5,329.3,193.387H466.317L440.248,181.5Z" transform="translate(-312.825 -94.952)" fill="#eef0f2"/>
      <path id="Path_15648" data-name="Path 15648" d="M466.317,188.7l-11.262,5.839H342.647L329.3,188.7Z" transform="translate(-312.825 -87.136)" fill="#eef0f2"/>
      <rect id="Rectangle_1957" data-name="Rectangle 1957" width="112.617" height="21.064" transform="translate(29.823 106.777)" fill="#eef0f2"/>
      <rect id="Rectangle_1958" data-name="Rectangle 1958" width="6.674" height="12.722" transform="translate(35.245 111.574)" fill="#eef0f2"/>
      <rect id="Rectangle_1959" data-name="Rectangle 1959" width="6.674" height="12.722" transform="translate(47.132 111.574)" fill="#eef0f2"/>
      <rect id="Rectangle_1960" data-name="Rectangle 1960" width="6.674" height="12.722" transform="translate(59.02 111.574)" fill="#eef0f2"/>
      <rect id="Rectangle_1961" data-name="Rectangle 1961" width="6.674" height="12.722" transform="translate(70.907 111.574)" fill="#eef0f2"/>
      <rect id="Rectangle_1962" data-name="Rectangle 1962" width="6.674" height="12.722" transform="translate(83.003 111.574)" fill="#eef0f2"/>
      <rect id="Rectangle_1963" data-name="Rectangle 1963" width="6.674" height="12.722" transform="translate(94.89 111.574)" fill="#eef0f2"/>
      <rect id="Rectangle_1964" data-name="Rectangle 1964" width="6.674" height="12.722" transform="translate(106.777 111.574)" fill="#eef0f2"/>
      <rect id="Rectangle_1965" data-name="Rectangle 1965" width="6.674" height="12.722" transform="translate(118.873 111.574)" fill="#eef0f2"/>
      <rect id="Rectangle_1966" data-name="Rectangle 1966" width="6.674" height="12.722" transform="translate(130.761 111.574)" fill="#eef0f2"/>
      <path id="Path_15649" data-name="Path 15649" d="M351.223,201.3,321.4,216.107H490.117L463.839,201.3Z" transform="translate(-321.4 -73.459)" fill="#eef0f2"/>
      <path id="Path_15650" data-name="Path 15650" d="M490.117,210l-18.352,7.716H340.8L321.4,210Z" transform="translate(-321.4 -64.015)" fill="#eef0f2"/>
      <rect id="Rectangle_1967" data-name="Rectangle 1967" width="130.969" height="36.288" transform="translate(19.395 153.701)" fill="#eef0f2"/>
      <path id="Path_15651" data-name="Path 15651" d="M349.081,243.366H334.9V226.891a7.032,7.032,0,0,1,7.091-7.091h.209a7.032,7.032,0,0,1,7.091,7.091v16.475Z" transform="translate(-306.746 -53.377)" fill="#eef0f2"/>
      <path id="Path_15652" data-name="Path 15652" d="M361.081,243.366H346.9V226.891a7.032,7.032,0,0,1,7.091-7.091h.209a7.032,7.032,0,0,1,7.091,7.091v16.475Z" transform="translate(-293.72 -53.377)" fill="#eef0f2"/>
      <path id="Path_15653" data-name="Path 15653" d="M372.981,243.366H358.8V226.891a7.032,7.032,0,0,1,7.091-7.091h.209a7.032,7.032,0,0,1,7.091,7.091v16.475Z" transform="translate(-280.802 -53.377)" fill="#eef0f2"/>
      <path id="Path_15654" data-name="Path 15654" d="M384.881,243.366H370.7V226.891a7.032,7.032,0,0,1,7.091-7.091H378a7.032,7.032,0,0,1,7.091,7.091v16.475Z" transform="translate(-267.885 -53.377)" fill="#eef0f2"/>
      <path id="Path_15655" data-name="Path 15655" d="M396.881,243.366H382.7V226.891a7.032,7.032,0,0,1,7.091-7.091H390a7.032,7.032,0,0,1,7.091,7.091v16.475Z" transform="translate(-254.859 -53.377)" fill="#eef0f2"/>
      <rect id="Rectangle_1968" data-name="Rectangle 1968" width="144.942" height="9.802" transform="translate(12.304 189.989)" fill="#eef0f2"/>
      <rect id="Rectangle_1969" data-name="Rectangle 1969" width="168.717" height="3.337" transform="translate(0 142.648)" fill="#eef0f2"/>
      <rect id="Rectangle_1970" data-name="Rectangle 1970" width="106.36" height="4.171" transform="translate(33.159 59.645)" fill="#eef0f2"/>
      <rect id="Rectangle_1971" data-name="Rectangle 1971" width="22.106" height="21.064" transform="translate(75.286 62.148)" fill="#eef0f2"/>
      <rect id="Rectangle_1972" data-name="Rectangle 1972" width="137.226" height="2.92" transform="translate(16.475 98.435)" fill="#eef0f2"/>
    </g>
    <g id="Group_8046" data-name="Group 8046" transform="translate(148.788 81.953)">
      <path id="Path_15656" data-name="Path 15656" d="M625.274,102.212a22.032,22.032,0,0,0-15.016-9.385c1.46,1.46,3.128,2.5,4.171,5.005a25.94,25.94,0,0,1,2.086,8.133v2.294l-.417,2.086a33.121,33.121,0,0,1-1.46,4.171,11.574,11.574,0,0,1-6.674,5.839,13.951,13.951,0,0,1-8.759-.209,10.775,10.775,0,0,1-3.754-2.5,9.6,9.6,0,0,1-2.086-3.754,9.785,9.785,0,0,1,1.668-7.716,10.939,10.939,0,0,0,0,7.3,6.776,6.776,0,0,0,2.086,2.711,7.705,7.705,0,0,0,2.92,1.46,9.786,9.786,0,0,0,6.465-.209,8.556,8.556,0,0,0,4.588-4.38,19.565,19.565,0,0,0,1.251-3.128l.417-1.668a4.593,4.593,0,0,1,.208-1.668,29.88,29.88,0,0,0-1.251-7.091.2.2,0,0,0-.208-.209,8.222,8.222,0,0,0-10.845-4.8h-.208s-.626-19.6-19.812-19.4-22.941,12.3-22.941,12.3-5.422-6.674-15.016-3.128-9.8,14.39-9.8,14.39c-5.214-6.256-21.063-2.294-18.769,11.47,1.877,10.845,11.679,12.93,15.641,13.139a11.9,11.9,0,0,1,.208-2.711,19.979,19.979,0,0,1,2.5-6.674,14.414,14.414,0,0,1,5.214-4.8,9.214,9.214,0,0,1,3.337-1.251,11.8,11.8,0,0,1,4.8-.209c-1.043.626-1.251.626-3.962,1.46-.834.626-3.337,1.877-3.962,2.5a14.906,14.906,0,0,0-4.38,5.839c-10.219,32.534,33.785,29.2,32.951,14.807,0,0,2.5,11.47,17.31,10.845s15.85-13.347,15.85-13.347C616.307,139.334,635.285,117.228,625.274,102.212Z" transform="translate(367.574 -5.86)" fill="#eef0f2"/>
      <path id="Path_15657" data-name="Path 15657" d="M381.2,121.1a17.779,17.779,0,0,0-11.887-7.508c1.251,1.251,2.5,2.085,3.337,3.962a17.445,17.445,0,0,1,1.668,6.465v1.668l-.209,1.668a10.9,10.9,0,0,1-1.251,3.337,8.557,8.557,0,0,1-5.422,4.588,11.055,11.055,0,0,1-6.882-.209,8.747,8.747,0,0,1-2.92-1.877,5.737,5.737,0,0,1-1.668-3.128,8.037,8.037,0,0,1,1.251-6.256,9.312,9.312,0,0,0,0,5.839,5.678,5.678,0,0,0,1.668,2.086,4.971,4.971,0,0,0,2.294,1.251,8.9,8.9,0,0,0,5.214-.209,7.36,7.36,0,0,0,3.754-3.337c.417-.834.626-1.668,1.043-2.5l.209-1.46a2.645,2.645,0,0,1,.209-1.251,17.883,17.883,0,0,0-1.043-5.631v-.209a6.531,6.531,0,0,0-8.759-3.754H361.6s-.417-15.641-15.85-15.433S327.4,109,327.4,109a10.749,10.749,0,0,0-11.887-2.5c-7.508,2.711-7.716,11.47-7.716,11.47-4.171-5.005-16.684-1.877-15.016,9.176,1.46,8.759,9.385,10.219,12.513,10.427a8.553,8.553,0,0,1,.209-2.294,11.482,11.482,0,0,1,2.085-5.214,10.3,10.3,0,0,1,4.171-3.754,12.755,12.755,0,0,1,2.5-1.043,7.353,7.353,0,0,1,3.754-.209,12.953,12.953,0,0,1-3.128,1.251,27.17,27.17,0,0,0-3.128,2.085,10.562,10.562,0,0,0-3.545,4.588c-8.133,26.069,26.9,23.358,26.277,11.887,0,0,2.086,9.176,13.764,8.759S360.975,143,360.975,143C374.114,150.713,389.129,132.986,381.2,121.1Z" transform="translate(127.392 20.3)" fill="#eef0f2"/>
      <path id="Path_15658" data-name="Path 15658" d="M179.8,63.8a17.779,17.779,0,0,0-11.887-7.508c1.251,1.251,2.5,2.085,3.337,3.962a17.444,17.444,0,0,1,1.668,6.465v1.668l-.209,1.668a10.9,10.9,0,0,1-1.251,3.337,8.557,8.557,0,0,1-5.422,4.588,11.055,11.055,0,0,1-6.882-.209,8.748,8.748,0,0,1-2.92-1.877,5.738,5.738,0,0,1-1.668-3.128,8.038,8.038,0,0,1,1.251-6.256,9.312,9.312,0,0,0,0,5.839,5.678,5.678,0,0,0,1.668,2.085,4.971,4.971,0,0,0,2.294,1.251A8.906,8.906,0,0,0,165,75.478a7.36,7.36,0,0,0,3.754-3.337c.417-.834.626-1.668,1.043-2.5l.209-1.46a2.645,2.645,0,0,1,.209-1.251,17.88,17.88,0,0,0-1.043-5.631v-.209a6.531,6.531,0,0,0-8.759-3.754H160.2s-.417-15.641-15.85-15.433S126,51.7,126,51.7a10.749,10.749,0,0,0-11.887-2.5c-7.508,2.711-7.716,11.47-7.716,11.47-4.171-5.005-16.684-1.877-15.016,9.176,1.46,8.759,9.385,10.219,12.513,10.427a8.555,8.555,0,0,1,.209-2.294,11.482,11.482,0,0,1,2.085-5.214,10.3,10.3,0,0,1,4.171-3.754,12.757,12.757,0,0,1,2.5-1.043,7.354,7.354,0,0,1,3.754-.209,12.955,12.955,0,0,1-3.128,1.251,27.174,27.174,0,0,0-3.128,2.085,10.562,10.562,0,0,0-3.545,4.588c-8.133,26.069,26.9,23.358,26.277,11.887,0,0,2.085,9.176,13.764,8.759S159.575,85.7,159.575,85.7C172.714,93.413,187.938,75.686,179.8,63.8Z" transform="translate(-91.227 -41.899)" fill="#eef0f2"/>
    </g>
    <g id="Group_8047" data-name="Group 8047" transform="translate(913.691 169.754)">
      <path id="Path_15659" data-name="Path 15659" d="M460.1,96.2s33.785,24.609,53.389,73.618h10.219s68.613,97.393,26.277,215.849H464.48Z" transform="translate(-455.72 -70.757)" fill="#eef0f2"/>
      <path id="Path_15660" data-name="Path 15660" d="M464.9,105.1v53.389h30.448S493.68,137.425,464.9,105.1Z" transform="translate(-450.51 -61.096)" fill="#eef0f2"/>
      <rect id="Rectangle_1973" data-name="Rectangle 1973" width="36.496" height="6.256" transform="translate(14.39 104.275)" fill="#eef0f2"/>
      <rect id="Rectangle_1974" data-name="Rectangle 1974" width="41.918" height="6.256" transform="translate(14.39 115.536)" fill="#eef0f2"/>
      <rect id="Rectangle_1975" data-name="Rectangle 1975" width="46.715" height="6.256" transform="translate(14.39 127.007)" fill="#eef0f2"/>
      <rect id="Rectangle_1976" data-name="Rectangle 1976" width="49.218" height="6.256" transform="translate(14.39 138.477)" fill="#eef0f2"/>
      <rect id="Rectangle_1977" data-name="Rectangle 1977" width="50.678" height="6.256" transform="translate(14.39 149.947)" fill="#eef0f2"/>
      <rect id="Rectangle_1978" data-name="Rectangle 1978" width="56.308" height="6.256" transform="translate(14.39 161.417)" fill="#eef0f2"/>
      <rect id="Rectangle_1979" data-name="Rectangle 1979" width="56.1" height="6.256" transform="translate(14.39 172.679)" fill="#eef0f2"/>
      <rect id="Rectangle_1980" data-name="Rectangle 1980" width="58.602" height="6.256" transform="translate(15.016 184.149)" fill="#eef0f2"/>
      <rect id="Rectangle_1981" data-name="Rectangle 1981" width="59.228" height="6.256" transform="translate(14.39 195.62)" fill="#eef0f2"/>
      <rect id="Rectangle_1982" data-name="Rectangle 1982" width="61.939" height="6.256" transform="translate(14.39 207.09)" fill="#eef0f2"/>
      <rect id="Rectangle_1983" data-name="Rectangle 1983" width="61.939" height="6.256" transform="translate(14.39 218.56)" fill="#eef0f2"/>
      <rect id="Rectangle_1984" data-name="Rectangle 1984" width="62.148" height="6.256" transform="translate(14.39 230.03)" fill="#eef0f2"/>
      <rect id="Rectangle_1985" data-name="Rectangle 1985" width="61.939" height="6.256" transform="translate(14.39 241.292)" fill="#eef0f2"/>
      <rect id="Rectangle_1986" data-name="Rectangle 1986" width="59.228" height="6.256" transform="translate(14.39 252.762)" fill="#eef0f2"/>
      <rect id="Rectangle_1987" data-name="Rectangle 1987" width="59.228" height="6.256" transform="translate(14.39 264.232)" fill="#eef0f2"/>
      <rect id="Rectangle_1988" data-name="Rectangle 1988" width="59.02" height="6.256" transform="translate(14.39 275.703)" fill="#eef0f2"/>
      <rect id="Rectangle_1989" data-name="Rectangle 1989" width="56.308" height="6.256" transform="translate(14.39 287.173)" fill="#eef0f2"/>
      <path id="Path_15661" data-name="Path 15661" d="M466.551,401.621H458V84l8.551,5.005Z" transform="translate(-458 -84)" fill="#eef0f2"/>
    </g>
    <line id="Line_132" data-name="Line 132" x2="1366" transform="translate(38.2 484.873)" fill="none"/>
  </g>
</svg>
