<svg xmlns="http://www.w3.org/2000/svg" width="523.273" height="367.26" viewBox="0 0 523.273 367.26">
  <g id="Illsutration" transform="translate(-0.724 -8)">
    <path id="Fill-4" d="M65.924,66.81,11.153,75.283,1.026,9.435,55.353,1.029l1.8,11.709.889-.137L56.105,0,0,8.681,10.4,76.314,66.061,67.7l-.137-.892" transform="translate(426.895 107.367)" fill="#150a0a" fill-rule="evenodd"/>
    <path id="Fill-5" d="M66.341,67.254l-.069-.446L11.211,75.283,1.031,9.435,55.646,1.029,65.894,67.323l.447-.069-.069-.446.069.446.447-.069L56.4,0,0,8.682,10.455,76.314l56.4-8.682-.069-.446-.447.069" transform="translate(455.548 116.111)" fill="#150a0a" fill-rule="evenodd"/>
    <path id="Fill-6" d="M90.225,0H63.88A6.812,6.812,0,0,0,57,6.741v4.672H7.919A7.84,7.84,0,0,0,0,19.171V74.913a7.841,7.841,0,0,0,7.919,7.76H89.185a7.839,7.839,0,0,0,7.918-7.76V6.741A6.81,6.81,0,0,0,90.225,0" transform="translate(426.895 158.243)" fill="#070b1d" fill-rule="evenodd"/>
    <path id="Fill-7" d="M0,0V7.154H23.082V0H22.17V6.359H.912V0H0" transform="translate(463.507 206.734)" fill="#efe7df" fill-rule="evenodd"/>
    <path id="Fill-8" d="M.5,11.924h.8V0H.5Z" transform="translate(475.343 196.4)" fill="#efe7df" fill-rule="evenodd"/>
    <path id="Fill-9" d="M0,.712,5.8,4.77,11.939.719,11.315,0,5.822,3.624.649.007,0,.712" transform="translate(469.874 202.759)" fill="#efe7df" fill-rule="evenodd"/>
    <path id="Fill-10" d="M.139,3.975,19.1.937,18.963,0,0,3.038" transform="translate(439.63 143.934)" fill="#150a0a" fill-rule="evenodd"/>
    <path id="Fill-11" d="M.142,3.975,19.1.952,18.96,0,0,3.021" transform="translate(441.221 151.883)" fill="#150a0a" fill-rule="evenodd"/>
    <path id="Fill-12" d="M.145,3.975,19.1.968,18.957,0,0,3.007" transform="translate(442.017 159.038)" fill="#150a0a" fill-rule="evenodd"/>
    <path id="Fill-13" d="M15.011.008l.079.015.04.011a.453.453,0,0,1,.363.423l0,.043,0,.065c-.18,1.247-.37,2.629-.612,4.038.247-.5.5-1,.744-1.5a.488.488,0,0,1,.706-.288.458.458,0,0,1,.324.66c-1.3,4.2-1.1,9.105-3.777,12.826-.154.213-.326.409-.491.61-.93,3.64-3.792,6.149-7.69,5.852a.471.471,0,0,1-.75.168c-2.847-2.41-4.483-5.762-3.8-9.492.884-4.8,5.434-6.753,7.9-10.627l.328-.249a.569.569,0,0,1,.664.654l0,.056a19.72,19.72,0,0,1-1.69,4.668C9.784,6.114,11.85,4.138,11.643.99a.492.492,0,0,1,.489-.6A.45.45,0,0,1,12.724.8a11.023,11.023,0,0,1,.24,3.165c.545-1.2,1.045-2.417,1.471-3.627l.048-.077,0,0a.483.483,0,0,1,.526-.245" transform="translate(424.507 178.116)" fill="#f4c2ae" fill-rule="evenodd"/>
    <path id="Fill-14" d="M17.318,6.75c-.751-1.286-2.237,1.1-3.228,2.691a19.392,19.392,0,0,0-2.1-3.215C9.126,3.109.967-.02.827.017.287-.135.062.755.615.956.689.982,3.841,3.5,5.285,4.8A12.722,12.722,0,0,1,6.671,6.279l0,0A2.283,2.283,0,0,0,3.562,7.1l-.005.017c-1.531-.107-2.379,1.834-2.112,3.119a1.8,1.8,0,0,0-.96.5,2.657,2.657,0,0,0-.236,2.688,10.156,10.156,0,0,0,7.136,7.194l.221.043a15.468,15.468,0,0,0,7.7-2.222l.352-.233a.389.389,0,0,0,.345-.449,19.546,19.546,0,0,1,.766-7.154c.245-.884,1.121-2.883.546-3.861" transform="translate(159.467 178.911)" fill="#f4c2ae" fill-rule="evenodd"/>
    <path id="Fill-15" d="M97.093,129.574a25.6,25.6,0,0,0,3.019-4.454c6.022-11.289,19.264-69.2,18.443-85.611S119.871,4.488,78.313.866C36.98-2.739,13.936,5.721,7.735,11.326.672,17.705-1.689,27.288,1.211,53.007,3.72,75.226,8.1,113.828,21.762,129.574H97.093" transform="translate(241.446 190.04)" fill="#456da7" fill-rule="evenodd"/>
    <path id="Fill-16" d="M81.811,73.56S67.173,124.452,53.71,124.7s-18.171,0-18.171,0S6.933,105.443,0,4.56L12.654.29S39.24,47.131,47.522,78.58c0,0,4.506-66.244,48.784-78.58L81.811,73.56" transform="translate(165.038 195.605)" fill="#456da7" fill-rule="evenodd"/>
    <path id="Fill-17" d="M14.494,73.56s14.639,50.892,28.1,51.137,18.175,0,18.175,0S89.375,105.443,96.306,4.56L83.653.29S57.068,47.131,48.783,78.58c0,0-4.506-66.244-48.783-78.58L14.494,73.56" transform="translate(340.14 195.605)" fill="#456da7" fill-rule="evenodd"/>
    <path id="Fill-18" d="M17.51.887,1.117,0,0,20.578l16.391.885L17.51.887" transform="translate(286.814 154.268)" fill="#f4c2ae" fill-rule="evenodd"/>
    <path id="Fill-19" d="M5.594,0S-.98,14.058.125,20.629c.764,4.565,6.834,6.141,11.241,3.593A8.837,8.837,0,0,0,15.122,19.9L5.594,0" transform="translate(284.426 152.678)" fill="#f4c2ae" fill-rule="evenodd"/>
    <path id="Fill-20" d="M1.5,1.549s-4.14,6.765,1.356,11.4,19.2,2.235,22.618-11.67c0,0-19.828-3.056-23.974.266" transform="translate(281.242 189.245)" fill="#f4c2ae" fill-rule="evenodd"/>
    <path id="Fill-21" d="M0,24.921S4.317,16.316,4.064.558l16-.558s-.26,12.92,3.018,24.665c0,0-16.889,3.35-23.082.256" transform="translate(282.834 166.192)" fill="#f4c2ae" fill-rule="evenodd"/>
    <path id="Fill-22" d="M109.04,73.929H5.086L0,0H103.954l5.086,73.929" transform="translate(204.834 241.711)" fill="#ccc8c3" fill-rule="evenodd"/>
    <path id="Fill-23" d="M124.163,4.77H0V0H103.7l20.458,1.578V4.77" transform="translate(211.202 314.845)" fill="#ccc8c3" fill-rule="evenodd"/>
    <path id="Fill-25" d="M0,0,21.49,1.95V3.9L0,3.975V0" transform="translate(313.875 315.64)" fill="#aeaba7" fill-rule="evenodd"/>
    <path id="Fill-26" d="M6.864,15.1C3.13,15.157.054,11.819,0,7.65S2.93.053,6.667,0s6.808,3.282,6.863,7.453S10.6,15.047,6.864,15.1Z" transform="translate(250.201 268.739)" fill="#fff" fill-rule="evenodd"/>
    <path id="Fill-27" d="M0,0,1.17.326l5.2,73.6-1.322-.092L0,0" transform="translate(309.099 241.711)" fill="#aeaba7" fill-rule="evenodd"/>
    <path id="Fill-28" d="M0,102.547V7.373L81.184,0V95.175Z" transform="translate(59.977 103.392)" fill="#ffc0c0" fill-rule="evenodd"/>
    <path id="Fill-30" d="M89.142,99.682,0,101.752V2.069L89.142,0V99.682" transform="translate(44.059 191.63)" fill="#fffffe" fill-rule="evenodd"/>
    <path id="Fill-31" d="M98.358,0H69.635a7.508,7.508,0,0,0-7.5,7.518v5.211H8.632A8.643,8.643,0,0,0,0,21.383V83.558a8.642,8.642,0,0,0,8.632,8.654H97.225a8.643,8.643,0,0,0,8.631-8.654V7.518A7.509,7.509,0,0,0,98.358,0" transform="translate(35.304 227.402)" fill="#f1c153" fill-rule="evenodd"/>
    <path id="Fill-32" d="M0,0V11.129H27.061V0h-.91V10.073H.908V0H0" transform="translate(73.508 279.073)" fill="#150a0a" fill-rule="evenodd"/>
    <path id="Fill-33" d="M.5,13.514h.8V0H.5Z" transform="translate(86.936 273.508)" fill="#150a0a" fill-rule="evenodd"/>
    <path id="Fill-34" d="M.591,5.557,6.205,1.167l5.962,4.4.568-.734L6.19,0,0,4.84l.591.718" transform="translate(81.467 271.918)" fill="#150a0a" fill-rule="evenodd"/>
    <path id="Fill-36" d="M26.265,26.017,0,27.028V1.011L26.265,0V26.017" transform="translate(50.426 203.554)" fill="#e2e6e7" fill-rule="evenodd"/>
    <path id="Fill-37" d="M41.388,3.867,0,5.565V1.7L41.388,0V3.867" transform="translate(80.671 201.964)" fill="#e2e6e7" fill-rule="evenodd"/>
    <path id="Fill-38" d="M41.388,3.868,0,5.565V1.7L41.388,0V3.868" transform="translate(80.671 214.683)" fill="#e2e6e7" fill-rule="evenodd"/>
    <path id="Fill-39" d="M58.1,4.478,0,11.129V6.653L58.1,0V4.478" transform="translate(71.12 115.316)" fill="#fff" fill-rule="evenodd"/>
    <path id="Fill-44" d="M58.1,4.476,0,11.129V6.651L58.1,0V4.476" transform="translate(71.12 124.855)" fill="#fff" fill-rule="evenodd"/>
    <path id="Fill-45" d="M58.1,4.478,0,11.129V6.653L58.1,0V4.478" transform="translate(71.12 135.985)" fill="#fff" fill-rule="evenodd"/>
    <path id="Fill-46" d="M58.1,4.476,0,11.129V6.653L58.1,0V4.476" transform="translate(71.12 146.319)" fill="#fff" fill-rule="evenodd"/>
    <path id="Fill-49" d="M7.541,9.419A5.957,5.957,0,0,1,3.305,11.11l-.31.876S-.088,10.49,0,5.661s5.5-5.815,8.212-3.848c0,0,5.783-2.683,11.361-1.52s6.276,6.953,5.751,9.6-3.608,8.648-3.634,9.182c0,0-4.54-6.264-4.907-8.768,0,0-6.858,2.061-9.244-.892" transform="translate(282.038 147.114)" fill="#070b1d" fill-rule="evenodd"/>
    <path id="Fill-50" d="M8.98,0S5.443,11.684,0,15.9l6.916-.719s3.122-4.658,4.226-13.847A6.435,6.435,0,0,1,8.98,0" transform="translate(275.671 175.731)" fill="#070b1d" fill-rule="evenodd"/>
    <path id="Fill-51" d="M7.661.038S5.247,23.875,16.714,31.8c0,0-8.348-.335-10.344-.442,0,0-7.654,1.5-5.239-11.022,0,0-3.59-11.654,2.02-13.286,0,0-.981-7.649,4.51-7.01" transform="translate(301.14 159.038)" fill="#070b1d" fill-rule="evenodd"/>
    <path id="Fill-52" d="M1.008.831s2.241-1.9,3.984.055C6.435,2.5,5.289,6.627.345,6.346A6.366,6.366,0,0,1,1.008.831" transform="translate(301.14 159.038)" fill="#f4c2ae" fill-rule="evenodd"/>
    <path id="Fill-53" d="M0,5.171,77.2,0V14.6l-5.058.506V6L0,7.792V5.171" transform="translate(60.773 184.476)" fill="#efe7df" fill-rule="evenodd"/>
    <path id="Fill-54" d="M0,2.286V6.359L22.286,4.074V0L0,2.286" transform="translate(106.936 169.372)" fill="#e2e6e7" fill-rule="evenodd"/>
    <path id="Fill-67" d="M.138,4.77,23.082.964,22.942,0,0,3.806" transform="translate(472.262 126.445)" fill="#150a0a" fill-rule="evenodd"/>
    <path id="Fill-68" d="M.144,4.77l20.549-3.68L20.549,0,0,3.68" transform="translate(436.446 128.035)" fill="#150a0a" fill-rule="evenodd"/>
    <path id="Fill-69" d="M.145,4.77,24.673.951,24.528,0,0,3.818" transform="translate(473.854 133.6)" fill="#150a0a" fill-rule="evenodd"/>
    <path id="Fill-70" d="M.149,4.77,20.694,1.108,20.547,0,0,3.663" transform="translate(437.242 135.19)" fill="#150a0a" fill-rule="evenodd"/>
    <path id="Fill-73" d="M44.522,63.595c.024-19.019.049-39.521.049-39.839A23.38,23.38,0,0,0,37.424,6.947,24.772,24.772,0,0,0,0,10.463l.712.526A23.913,23.913,0,0,1,36.824,7.6,22.468,22.468,0,0,1,43.7,23.756c0,.314-.024,20.818-.049,39.839h.875" transform="translate(175.385 155.063)" fill="#150a0a" fill-rule="evenodd"/>
    <path id="Fill-74" d="M0,.094.4,4.77l4.38-.3L4.717,3.446l-3.469.238L.938,0,0,.094" transform="translate(172.998 159.833)" fill="#150a0a" fill-rule="evenodd"/>
    <path id="Fill-75" d="M4.285,5.565,4.775.623.131,0,0,1.019l3.678.493L3.284,5.46l1,.1" transform="translate(106.936 77.159)" fill="#150a0a" fill-rule="evenodd"/>
    <path id="Fill-76" d="M0,4.278l4.944.492L5.571.13,4.551,0l-.5,3.672L.1,3.28l-.1,1" transform="translate(451.568 77.954)" fill="#150a0a" fill-rule="evenodd"/>
    <path id="Fill-77" d="M.665,6.359,3.98,3.214.978,0,.271.63,2.649,3.175,0,5.687l.665.673" transform="translate(218.365 8)" fill="#150a0a" fill-rule="evenodd"/>
    <path id="Fill-78" d="M.665,6.359,3.98,3.214.978,0l-.7.63L2.649,3.175,0,5.687l.665.673" transform="translate(344.915 8)" fill="#150a0a" fill-rule="evenodd"/>
    <path id="Fill-79" d="M65.13,0H7.3A7.174,7.174,0,0,0,0,7.04v33.5L10.2,30.018H65.13a7.171,7.171,0,0,0,7.3-7.038V7.04A7.172,7.172,0,0,0,65.13,0" transform="translate(328.201 126.445)" fill="#f1c153" fill-rule="evenodd"/>
    <path id="Fill-80" d="M3.475,1.987h-.5a.98.98,0,1,1-.981-.98.984.984,0,0,1,.981.98H3.98A1.99,1.99,0,1,0,1.989,3.975,1.989,1.989,0,0,0,3.98,1.987h-.5" transform="translate(236.671 135.985)" fill="#150a0a" fill-rule="evenodd"/>
    <path id="Fill-81" d="M3.475,1.987h-.5a.981.981,0,1,1-.981-.98.984.984,0,0,1,.981.98H3.98A1.99,1.99,0,1,0,1.99,3.975,1.987,1.987,0,0,0,3.98,1.987h-.5" transform="translate(247.018 135.985)" fill="#150a0a" fill-rule="evenodd"/>
    <path id="Fill-82" d="M3.475,1.987h-.5a.98.98,0,1,1-.981-.98.984.984,0,0,1,.981.98H3.98A1.99,1.99,0,1,0,1.989,3.975,1.989,1.989,0,0,0,3.98,1.987h-.5" transform="translate(255.773 135.985)" fill="#150a0a" fill-rule="evenodd"/>
    <path id="Fill-83" d="M0,1.295H47.755V.5H0Z" transform="translate(343.324 137.472)" fill="#150a0a" fill-rule="evenodd"/>
    <path id="Fill-84" d="M0,1.295H47.755V.5H0Z" transform="translate(343.324 144.626)" fill="#150a0a" fill-rule="evenodd"/>
    <path id="Fill-85" d="M318.713.729V.663H.9V.132H318.264v.6h.449v0h.449V0H0V.795H319.162V.729h-.449" transform="translate(154.692 318.82)" fill="none" stroke="#000" stroke-width="1" fill-rule="evenodd"/>
    <path id="Fill-89" d="M85.348.555S69.691-3.27,53.73,9.169C41.19,18.945,31.754,33.881,0,34.67c0,0,11.71,29.521,38.323,46.414,0,0,35.037-6.987,52.057-28.145,10.9-13.553,28.212-11.323,28.212-11.323L85.348.555" transform="translate(365.609 294.177)" fill="#fffffe" fill-rule="evenodd"/>
    <path id="Fill-104" d="M3.98,8.43S2.746,2.288,2.287,0c0,0-4.374,12.519-1.024,20.668L3.98,8.43" transform="translate(349.691 258.405)" fill="#070b1d" fill-rule="evenodd"/>
    <path id="Fill-105" d="M1.349,7.143s.412,3.437-1.03,3.986C.319,11.129.875,1.6.682,0c0,0,.533,3.976.667,7.143" transform="translate(387.034 266.354)" fill="#070b1d" fill-rule="evenodd"/>
    <path id="Fill-106" d="M1.592.8A.8.8,0,1,1,.8,0a.8.8,0,0,1,.8.8" transform="translate(289.997 209.119)" fill="#efe7df" fill-rule="evenodd"/>
    <path id="Fill-107" d="M1.592.795A.8.8,0,1,1,.8,0a.8.8,0,0,1,.8.795" transform="translate(289.997 213.888)" fill="#efe7df" fill-rule="evenodd"/>
    <path id="Fill-109" d="M.5,38.157a78.661,78.661,0,0,0,10.7-9.171c5.551-5.678,11.544-13.545,13.23-22.378A18.612,18.612,0,0,0,24.81,3.2,4.95,4.95,0,0,0,24.373.885,1.556,1.556,0,0,0,22.987,0a3.342,3.342,0,0,0-2.106,1.064,15.652,15.652,0,0,0-4.2,10.593c-.014,4.022,1.832,8.262,7.119,10.865a8.792,8.792,0,0,0,3.943.966c3.152-.005,5.761-1.793,7.58-3.535a19.316,19.316,0,0,0,2.885-3.5l-.761-.46s-.059.1-.178.275a18.927,18.927,0,0,1-3.244,3.665A9.865,9.865,0,0,1,27.739,22.6a7.922,7.922,0,0,1-3.548-.874c-5-2.491-6.609-6.3-6.625-10.07a15.56,15.56,0,0,1,2.086-7.541,10.444,10.444,0,0,1,1.835-2.4,2.558,2.558,0,0,1,1.5-.826c.249.012.4.082.6.419A4.14,4.14,0,0,1,23.921,3.2a17.787,17.787,0,0,1-.365,3.242c-1.622,8.546-7.5,16.313-12.994,21.922A82.1,82.1,0,0,1,3.217,35c-.978.781-1.784,1.389-2.344,1.8S0,37.424,0,37.424l.5.733" transform="translate(87.834 24.694)" fill="#150a0a" fill-rule="evenodd"/>
    <path id="Fill-110" d="M8.411,5.507h4.607V2.016H8.411Zm-7.548,0H5.471V2.016H.863ZM19.1.845,18.982,0a16.189,16.189,0,0,0-5.1,2.181V1.163H7.55V2.529H6.332V1.163H0v5.2H6.332V3.381H7.55V6.359h6.332V3.187A17.069,17.069,0,0,1,19.1.845Z" transform="translate(282.834 159.038)" fill="#070b1d" fill-rule="evenodd"/>
    <path id="Fill-111" d="M2.31,1.4s5.237,1.784,9.6-1.4c0,0,1.213,12.5-11.909,11.9,0,0,1.964-7.515,2.31-10.5" transform="translate(283.63 174.936)" fill="#cc9a8a" fill-rule="evenodd"/>
    <path id="Fill-112" d="M.609,31a82.356,82.356,0,0,0,6.6-7.161,46.445,46.445,0,0,0,4.555-6.547,14.225,14.225,0,0,0,2.107-6.51,5.656,5.656,0,0,0-.341-2A3.932,3.932,0,0,0,12.718,7.4,1.568,1.568,0,0,0,11.6,6.882a1.891,1.891,0,0,0-1.3.608,8.51,8.51,0,0,0-1.867,5.7,8.555,8.555,0,0,0,1.923,5.628c1.4,1.634,3.672,2.784,7.016,2.921.229.011.456.014.677.014a10.9,10.9,0,0,0,9.317-4.523,15.756,15.756,0,0,0,2.675-9.064,14.75,14.75,0,0,0-.772-4.9A5.38,5.38,0,0,0,27.075.254,1.975,1.975,0,0,0,26.126,0,2.188,2.188,0,0,0,24.61.688c-1.26,1.253-2.016,3.824-2.028,6.666a12.2,12.2,0,0,0,2.194,7.289,9.332,9.332,0,0,0,7.888,3.576c.5,0,1.019-.025,1.56-.079l-.088-.895c-.515.05-1,.074-1.473.074-3.5-.007-5.745-1.328-7.175-3.22a11.3,11.3,0,0,1-2.014-6.745,11.875,11.875,0,0,1,.868-4.645,4.42,4.42,0,0,1,.886-1.373,1.3,1.3,0,0,1,.9-.436,1.093,1.093,0,0,1,.525.146,4.543,4.543,0,0,1,1.778,2.53,13.947,13.947,0,0,1,.718,4.593,14.869,14.869,0,0,1-2.505,8.536,10,10,0,0,1-8.594,4.15c-.209,0-.424,0-.64-.013-3.167-.139-5.152-1.19-6.378-2.613a7.65,7.65,0,0,1-1.7-5.038A9.355,9.355,0,0,1,10.143,9.3a4.055,4.055,0,0,1,.779-1.163,1.026,1.026,0,0,1,.674-.356.673.673,0,0,1,.488.248A3.09,3.09,0,0,1,12.693,9.1a4.723,4.723,0,0,1,.284,1.679,13.386,13.386,0,0,1-1.994,6.071,54.172,54.172,0,0,1-6.858,9.213c-1.147,1.276-2.18,2.347-2.925,3.1S0,30.344,0,30.344L.609,31" transform="translate(426.895 86.699)" fill="#150a0a" fill-rule="evenodd"/>
    <g id="Group-14" transform="matrix(0.819, -0.574, 0.574, 0.819, 0.724, 323.064)">
      <path id="Fill-68-2" data-name="Fill-68" d="M14.2,0C11.323-.078,8.9,1.67,6.43,2.967a20.586,20.586,0,0,0-3.5,2.142A13.8,13.8,0,0,0,.34,8.4a2.381,2.381,0,0,0,2,3.566,13.722,13.722,0,0,0,3.738-.429A20,20,0,0,0,10.115,9.4c2.347-1.483,5.032-2.7,6.425-5.233A2.792,2.792,0,0,0,14.2,0" transform="translate(2.014 14.564)" fill="#e5735b" fill-rule="evenodd"/>
      <path id="Fill-69-2" data-name="Fill-69" d="M18.69,4.427C13.688,2.169,7.177-.954,1.664.279-.542.771-.366,3.6,1.092,4.766c2.351,1.885,5.2,2.219,8.057,2.758a57.294,57.294,0,0,0,8.487.924c1.941.075,2.979-3.151,1.054-4.021" transform="translate(0 0)" fill="#e5735b" fill-rule="evenodd"/>
      <path id="Fill-70-2" data-name="Fill-70" d="M9.183.562A58.454,58.454,0,0,0,3.612,7.545C1.954,10,.285,12.214.009,15.274a2.306,2.306,0,0,0,3.438,2.045c2.539-1.478,3.83-4.167,5.285-6.67a59.526,59.526,0,0,0,3.808-8.061C13.321.617,10.488-.852,9.183.562" transform="translate(11.115 22.65)" fill="#e5735b" fill-rule="evenodd"/>
    </g>
  </g>
</svg>
