<svg xmlns="http://www.w3.org/2000/svg" width="60" height="60.009" viewBox="0 0 60 60.009">
  <g id="insurance-clipboard-document-report-security" transform="translate(-2 -1.991)">
    <path id="Path_18434" data-name="Path 18434" d="M2,0H40a2,2,0,0,1,2,2V50a2,2,0,0,1-2,2H2a2,2,0,0,1-2-2V2A2,2,0,0,1,2,0Z" transform="translate(3 9)" fill="#ffdaaa"/>
    <path id="Path_18381" data-name="Path 18381" d="M45,11V59a2.006,2.006,0,0,1-2,2H39a2.006,2.006,0,0,0,2-2V11a2.006,2.006,0,0,0-2-2h4a2.006,2.006,0,0,1,2,2Z" fill="#ffdaaa"/>
    <path id="Path_18382" data-name="Path 18382" d="M7,13H41V57H7Z" fill="#fee9ab"/>
    <path id="Path_18383" data-name="Path 18383" d="M37,13h4V57H37Z" fill="#ffd422"/>
    <path id="Path_18384" data-name="Path 18384" d="M61,36V49.78a7.977,7.977,0,0,1-4.26,7.07L48,61l-3.08-1.46L39.58,57l-.32-.15A7.953,7.953,0,0,1,35.32,52,7.84,7.84,0,0,1,35,49.78V36h1a15.724,15.724,0,0,0,5-.81,15.975,15.975,0,0,0,4-1.96c.2-.14.4-.28.6-.43L48,31l2.4,1.8A16.119,16.119,0,0,0,60,36Z" fill="#ffcd00"/>
    <path id="Path_18385" data-name="Path 18385" d="M61,36V49.78a7.977,7.977,0,0,1-4.26,7.07L48,61l-2-.95,6.74-3.2A7.977,7.977,0,0,0,57,49.78V36H56a16.119,16.119,0,0,1-9.6-3.2l-.4-.3L48,31l2.4,1.8A16.119,16.119,0,0,0,60,36Z" fill="#ebbf00"/>
    <path id="Path_18386" data-name="Path 18386" d="M57,39.77V49.78a3.993,3.993,0,0,1-2.07,3.5L48,56.57l-6.93-3.29A3.993,3.993,0,0,1,39,49.78V39.77A20.08,20.08,0,0,0,48,36a20.08,20.08,0,0,0,9,3.77Z" fill="#ffe477"/>
    <path id="Path_18387" data-name="Path 18387" d="M57,39.77V49.78a3.993,3.993,0,0,1-2.07,3.5L48,56.57l-2-.95,4.93-2.34A3.993,3.993,0,0,0,53,49.78V39.77a20.042,20.042,0,0,1-7-2.46A18.576,18.576,0,0,0,48,36a20.08,20.08,0,0,0,9,3.77Z" fill="#ffd422"/>
    <path id="Path_18388" data-name="Path 18388" d="M34,9v5H14V9a2.006,2.006,0,0,1,2-2h3.1a5,5,0,0,1,9.8,0H32A2.006,2.006,0,0,1,34,9Z" fill="#acabb1"/>
    <path id="Path_18389" data-name="Path 18389" d="M34,9v5H30V9a2.006,2.006,0,0,0-2-2H24.9A4.986,4.986,0,0,0,22,3.42,4.941,4.941,0,0,1,24,3a5,5,0,0,1,4.9,4H32A2.006,2.006,0,0,1,34,9Z" fill="#898890"/>
    <path id="Path_18391" data-name="Path 18391" d="M30,22v4H26v4H24V18h2v4Z" transform="translate(0 51) rotate(-90)" fill="#cd2a00"/>
    <circle id="Ellipse_263" data-name="Ellipse 263" cx="2" cy="2" r="2" transform="translate(22 6)" fill="#787680"/>
    <path id="Path_18392" data-name="Path 18392" d="M26,8a2,2,0,0,1-3,1.73,2,2,0,0,0,0-3.46A2,2,0,0,1,26,8Z" fill="#57565c"/>
    <path id="Path_18393" data-name="Path 18393" d="M24,5a3,3,0,1,0,3,3A3,3,0,0,0,24,5Zm0,4a1,1,0,1,1,1-1A1,1,0,0,1,24,9Z"/>
    <path id="Path_18394" data-name="Path 18394" d="M11,33h4v2H11Z"/>
    <path id="Path_18395" data-name="Path 18395" d="M17,33H32v2H17Z"/>
    <path id="Path_18396" data-name="Path 18396" d="M11,39h4v2H11Z"/>
    <path id="Path_18397" data-name="Path 18397" d="M11,45h4v2H11Z"/>
    <path id="Path_18398" data-name="Path 18398" d="M11,51h4v2H11Z"/>
    <path id="Path_18399" data-name="Path 18399" d="M61,35H60a15.113,15.113,0,0,1-9-3l-2.4-1.8a.99.99,0,0,0-1.2,0L46,31.25V11a3.009,3.009,0,0,0-3-3H34.82A3.01,3.01,0,0,0,32,6H29.66A6,6,0,0,0,18.34,6H16a3.01,3.01,0,0,0-2.82,2H5a3.009,3.009,0,0,0-3,3V59a3.009,3.009,0,0,0,3,3H43a3.016,3.016,0,0,0,2.35-1.15l2.22,1.05a.975.975,0,0,0,.86,0l8.78-4.17A8.961,8.961,0,0,0,62,49.78V36a1,1,0,0,0-1-1ZM35,10h8a1,1,0,0,1,1,1V32.69a15.237,15.237,0,0,1-2,1.05V13a1,1,0,0,0-1-1H35ZM15,9a1,1,0,0,1,1-1h3.1a.988.988,0,0,0,.98-.8,4,4,0,0,1,7.84,0,.988.988,0,0,0,.98.8H32a1,1,0,0,1,1,1v4H15Zm-1,6H34a1,1,0,0,0,1-1h5V34.44A15.03,15.03,0,0,1,36,35H35a1,1,0,0,0-1,1v3H17v2H34v4H17v2H34v2.78A9.867,9.867,0,0,0,34.08,51H17v2H34.61a9.027,9.027,0,0,0,1.91,3H8V14h5a1,1,0,0,0,1,1ZM43,60H5a1,1,0,0,1-1-1V11a1,1,0,0,1,1-1h8v2H7a1,1,0,0,0-1,1V57a1,1,0,0,0,1,1H39.36l4.02,1.91A1.007,1.007,0,0,1,43,60ZM60,49.78a6.953,6.953,0,0,1-3.69,6.16L48,59.89l-8.29-3.94A6.975,6.975,0,0,1,36,49.78V37a17.1,17.1,0,0,0,10.2-3.4L48,32.25l1.8,1.35A17.1,17.1,0,0,0,60,37Z"/>
    <path id="Path_18401" data-name="Path 18401" d="M57.15,38.78A19.042,19.042,0,0,1,48.6,35.2a.99.99,0,0,0-1.2,0,19.042,19.042,0,0,1-8.55,3.58,1.008,1.008,0,0,0-.85.99V49.78a4.994,4.994,0,0,0,2.58,4.37l.06.03,6.93,3.29a.975.975,0,0,0,.86,0l6.99-3.32A5.006,5.006,0,0,0,58,49.78V39.77a1.008,1.008,0,0,0-.85-.99ZM56,49.78a2.959,2.959,0,0,1-1.5,2.59L48,55.46l-6.48-3.07A3,3,0,0,1,40,49.78V40.61a21.108,21.108,0,0,0,8-3.38,21.108,21.108,0,0,0,8,3.38Z"/>
    <path id="Path_18402" data-name="Path 18402" d="M43.707,47.293l-1.414,1.414,3,3a1,1,0,0,0,1.414,0l8-8-1.414-1.414L46,49.586Z"/>
  </g>
</svg>
