<svg xmlns="http://www.w3.org/2000/svg" width="60.828" height="60.969" viewBox="0 0 60.828 60.969">
  <g id="_003-customer-service" data-name="003-customer-service" transform="translate(-0.572)">
    <path id="Path_18419" data-name="Path 18419" d="M151.428,106.684V99.8a11.8,11.8,0,0,1,11.8-11.8h0a11.8,11.8,0,0,1,11.8,11.8v6.884Z" transform="translate(-132.313 -77.183)" fill="#d3a06c"/>
    <path id="Path_18420" data-name="Path 18420" d="M240.411,88c-.332,0-.658.023-.983.049A11.8,11.8,0,0,1,250.245,99.8v6.884h1.967V99.8A11.8,11.8,0,0,0,240.411,88Z" transform="translate(-209.495 -77.183)" fill="#b27946"/>
    <path id="Path_18421" data-name="Path 18421" d="M124.212,346.817h21.634L144,341.281a5.9,5.9,0,0,0-4.542-3.939L132.079,336h-7.867l-7.38,1.341a5.9,5.9,0,0,0-4.542,3.939l-.861,3.915v1.622Z" transform="translate(-97.229 -294.698)" fill="#92e0c0"/>
    <g id="Group_10710" data-name="Group 10710" transform="translate(19.115 21.634)">
      <path id="Path_18422" data-name="Path 18422" d="M215.428,312v2.95l3.934,3.933,3.933-3.933V312Z" transform="translate(-207.561 -295.283)" fill="#f9e0a6"/>
      <path id="Path_18423" data-name="Path 18423" d="M311.428,216h.983a2.95,2.95,0,0,1,2.95,2.95h0a2.95,2.95,0,0,1-2.95,2.95h-.983Z" transform="translate(-291.761 -211.083)" fill="#f9e0a6"/>
      <path id="Path_18424" data-name="Path 18424" d="M155.361,216h-.983a2.95,2.95,0,0,0-2.95,2.95h0a2.95,2.95,0,0,0,2.95,2.95h.983Z" transform="translate(-151.428 -211.083)" fill="#f9e0a6"/>
      <path id="Path_18425" data-name="Path 18425" d="M175.428,179.933v5.9a8.85,8.85,0,0,0,8.85,8.85h0a8.85,8.85,0,0,0,8.85-8.85v-5.9h0a11.872,11.872,0,0,1-8.394-3.477l-.456-.456-.456.456a11.872,11.872,0,0,1-8.394,3.477Z" transform="translate(-172.478 -176)" fill="#f9e0a6"/>
    </g>
    <path id="Path_18426" data-name="Path 18426" d="M247.295,212.644a8.849,8.849,0,0,1-7.867,8.792,8.823,8.823,0,0,0,9.834-8.792v-5.9a11.91,11.91,0,0,1-1.967-.176Z" transform="translate(-209.495 -181.176)" fill="#eabd8c"/>
    <path id="Path_18427" data-name="Path 18427" d="M345.395,8h13.767a1.966,1.966,0,0,1,1.967,1.967v7.867a1.966,1.966,0,0,1-1.967,1.967h-2.95l-7.867,4.917.843-4.917h-3.793a1.966,1.966,0,0,1-1.967-1.967V9.967A1.966,1.966,0,0,1,345.395,8Z" transform="translate(-300.712 -7.017)" fill="#ececec"/>
    <path id="Path_18428" data-name="Path 18428" d="M288.934,346.817H293.2l-1.846-5.536a5.9,5.9,0,0,0-4.542-3.939L279.428,336l7.075,3.931a3.933,3.933,0,0,1,2,3Z" transform="translate(-244.579 -294.698)" fill="#48c397"/>
    <path id="Path_18429" data-name="Path 18429" d="M30.064,283.614,26.537,286.8a1.966,1.966,0,0,1-2.781,0L16.7,279.75a1.966,1.966,0,0,1,0-2.781l3.189-3.189-5.9-5.9L10.3,271.575a5.9,5.9,0,0,0,0,8.344l13.29,13.29a5.9,5.9,0,0,0,8.344,0l4.032-3.695Z" transform="translate(-7.015 -234.952)" fill="#fb5968"/>
    <path id="Path_18430" data-name="Path 18430" d="M47.711,116.438a6.884,6.884,0,0,0-5.3-4.6l-6.572-1.2v-.509a9.9,9.9,0,0,0,2.931-2.6h1.985a2.954,2.954,0,0,0,2.95-2.95v-11.8a12.784,12.784,0,0,0-25.568,0v6.884a3.94,3.94,0,0,0,3.136,3.852,9.852,9.852,0,0,0,4.731,6.618v.509l-6.573,1.2a6.882,6.882,0,0,0-5.3,4.6l-.393,1.181-3.349-3.349a.985.985,0,0,1,0-1.391l3.884-3.883L6.986,101.7l-4.39,4.39a6.884,6.884,0,0,0,0,9.734l13.29,13.29a6.88,6.88,0,0,0,9.7.029l4.79-4.389-1.494-1.491h21.1Zm-16.788-2.427-2.95-2.95v-.046a9.826,9.826,0,0,0,5.9,0v.046Zm9.834-8.443H39.93a9.767,9.767,0,0,0,.641-2.048,3.9,3.9,0,0,0,1.169-.465v1.53A.984.984,0,0,1,40.757,105.568Zm0-7.594a1.95,1.95,0,0,1,0,3.387ZM20.106,99.667a1.96,1.96,0,0,1,.983-1.693v3.387A1.96,1.96,0,0,1,20.106,99.667Zm.983-4.917v1.123a3.9,3.9,0,0,0-.983.407v-3.5a10.817,10.817,0,1,1,21.634,0v3.5a3.865,3.865,0,0,0-.983-.407V94.751h-.983a10.819,10.819,0,0,1-7.7-3.189L30.923,90.41l-1.152,1.152a10.819,10.819,0,0,1-7.7,3.189Zm1.967,6.884V96.68a12.749,12.749,0,0,0,7.867-3.495A12.744,12.744,0,0,0,38.79,96.68v4.954a7.808,7.808,0,0,1-1.064,3.933h-6.8v1.967h5.186a7.854,7.854,0,0,1-13.053-5.9Zm-11.561,7.361-1.068,1.068-4.51-4.51,1.068-1.068Zm9.257,20.174a4.89,4.89,0,0,1-3.477-1.441L3.984,114.439a4.918,4.918,0,0,1,0-6.953l.541-.541,4.51,4.51L9,111.49a2.955,2.955,0,0,0,0,4.172l7.052,7.052a2.935,2.935,0,0,0,2.087.864,2.9,2.9,0,0,0,2.05-.83l.074-.066,4.53,4.53-.564.517A4.892,4.892,0,0,1,20.752,129.169Zm5.492-3.287-4.521-4.521,1.3-1.174,4.513,4.513Zm.676-4.58-3.83-3.83-4.256,3.85a1,1,0,0,1-1.39,0L15.3,119.174l.7-2.114a4.919,4.919,0,0,1,3.785-3.283l6.874-1.249,4.265,4.265,4.264-4.264,6.873,1.249a4.917,4.917,0,0,1,3.785,3.283L47.26,121.3Z" transform="translate(-0.007 -70.166)"/>
    <path id="Path_18431" data-name="Path 18431" d="M352.145,0H338.378a2.954,2.954,0,0,0-2.95,2.95v7.867a2.954,2.954,0,0,0,2.95,2.95H341L339.988,19.7l9.49-5.931h2.668a2.954,2.954,0,0,0,2.95-2.95V2.95A2.954,2.954,0,0,0,352.145,0Zm.983,10.817a.985.985,0,0,1-.983.983h-3.232l-6.245,3.9.67-3.9h-4.959a.985.985,0,0,1-.983-.983V2.95a.985.985,0,0,1,.983-.983h13.767a.985.985,0,0,1,.983.983Z" transform="translate(-293.695)"/>
    <rect id="Rectangle_3393" data-name="Rectangle 3393" width="11.8" height="1.967" transform="translate(45.666 3.933)"/>
    <rect id="Rectangle_3394" data-name="Rectangle 3394" width="7.867" height="1.967" transform="translate(45.666 7.867)"/>
    <rect id="Rectangle_3395" data-name="Rectangle 3395" width="1.967" height="1.967" transform="translate(55.5 7.867)"/>
    <path id="Path_18432" data-name="Path 18432" d="M9.788,45.494,8.776,43.807l-2.665,1.6a25.574,25.574,0,0,1,32.38-18.3l.582-1.878A27.535,27.535,0,0,0,4.122,45.285L2.258,42.179.572,43.19l3.457,5.76Z" transform="translate(0 -21.05)"/>
    <path id="Path_18433" data-name="Path 18433" d="M409.962,154.777l1.687,1.012,1.721-2.868a25.589,25.589,0,0,1-4.334,24.361l1.527,1.239a27.538,27.538,0,0,0,4.712-26.095l2.89,1.734,1.012-1.686-5.76-3.457Z" transform="translate(-358.255 -130.699)"/>
  </g>
</svg>
