<svg xmlns="http://www.w3.org/2000/svg" xmlns:xlink="http://www.w3.org/1999/xlink" width="51.5" height="51.5" viewBox="0 0 51.5 51.5">
  <defs>
    <clipPath id="clip-path">
      <path id="Path_18772" data-name="Path 18772" d="M11,22A11,11,0,1,0,0,11,11,11,0,0,0,11,22Z" transform="translate(27)"/>
    </clipPath>
  </defs>
  <g id="Icon" transform="translate(1.5 1)">
    <g id="Group-117">
      <path id="Rectangle" d="M5,0H34q.123,0,.245.006t.245.018q.122.012.243.03T34.976.1q.12.024.239.054t.236.065q.118.036.233.077t.229.088q.113.047.224.1t.219.11q.108.058.214.121t.207.131q.1.068.2.141t.193.151q.095.078.186.16t.178.169q.087.087.169.178t.16.186q.078.095.151.193t.141.2q.068.1.131.207t.121.213q.058.108.11.219t.1.224q.047.113.088.229t.077.233q.036.117.066.236t.054.239q.024.12.042.242t.03.244q.012.122.018.245T39,5V34q0,.123-.006.245t-.018.245q-.012.122-.03.243t-.042.242q-.024.12-.054.239t-.066.236q-.036.118-.077.233t-.088.229q-.047.113-.1.224t-.11.219q-.058.108-.121.214t-.131.207q-.068.1-.141.2t-.151.193q-.078.095-.16.186t-.169.178q-.087.087-.178.169t-.186.16q-.095.078-.193.151t-.2.141q-.1.068-.207.131t-.214.121q-.108.058-.219.11t-.224.1q-.113.047-.229.088t-.233.077q-.117.036-.236.066t-.239.054q-.12.024-.242.042t-.243.03q-.122.012-.245.018T34,39H5q-.123,0-.245-.006t-.245-.018q-.122-.012-.244-.03T4.024,38.9q-.12-.024-.239-.054t-.236-.066q-.117-.036-.233-.077t-.229-.088q-.113-.047-.224-.1t-.219-.11q-.108-.058-.213-.121t-.207-.131q-.1-.068-.2-.141t-.193-.151q-.095-.078-.186-.16t-.178-.169q-.087-.087-.169-.178t-.16-.186q-.078-.095-.151-.193t-.141-.2q-.068-.1-.131-.207T.59,36.357q-.058-.108-.11-.219t-.1-.224Q.334,35.8.292,35.685t-.077-.233Q.18,35.335.15,35.216T.1,34.976q-.024-.12-.042-.242t-.03-.243q-.012-.122-.018-.245T0,34V5q0-.123.006-.245t.018-.245q.012-.122.03-.244T.1,4.024Q.12,3.9.15,3.784t.065-.236q.036-.117.077-.233t.088-.229q.047-.113.1-.224t.11-.219q.058-.108.121-.213t.131-.207q.068-.1.141-.2t.151-.193q.078-.095.16-.186t.169-.178q.087-.087.178-.169t.186-.16q.095-.078.193-.151t.2-.141q.1-.068.207-.131T2.642.59q.108-.058.219-.11t.224-.1Q3.2.334,3.315.292T3.548.215Q3.665.18,3.784.15T4.024.1q.12-.024.242-.042t.244-.03q.122-.012.245-.018T5,0Z" transform="translate(0 10)" fill="none" stroke="#080808" stroke-width="3" fill-rule="evenodd"/>
      <g id="Oval">
        <path id="Path_18769" data-name="Path 18769" d="M11,22A11,11,0,1,0,0,11,11,11,0,0,0,11,22Z" transform="translate(27)" fill="none" stroke="#103076" stroke-width="2"/>
        <path id="Path_18770" data-name="Path 18770" d="M11,22A11,11,0,1,0,0,11,11,11,0,0,0,11,22Z" transform="translate(27)" fill="#fff"/>
        <g id="Group_10766" data-name="Group 10766" clip-path="url(#clip-path)">
          <path id="Path_18771" data-name="Path 18771" d="M11,22A11,11,0,1,0,0,11,11,11,0,0,0,11,22Z" transform="translate(27)" fill="none" stroke="#103076" stroke-width="2"/>
        </g>
      </g>
    </g>
  </g>
</svg>
