<svg id="browser" xmlns="http://www.w3.org/2000/svg" width="49" height="49" viewBox="0 0 49 49">
  <path id="Path" d="M47.473,3.652V43.821A3.479,3.479,0,0,1,44.2,47.473H3.274A3.479,3.479,0,0,1,0,43.821V3.652A3.479,3.479,0,0,1,3.274,0H44.2A3.479,3.479,0,0,1,47.473,3.652Z" transform="translate(0.764 0.764)" fill="#caf1fc"/>
  <path id="Path-2" data-name="Path" d="M47.473,3.556v.889H7.366A3.413,3.413,0,0,0,4.095,7.89c0,.093,0,20.874,0,30.353A2.054,2.054,0,1,1,0,38.23V3.556A3.424,3.424,0,0,1,3.274,0H44.2A3.424,3.424,0,0,1,47.473,3.556Z" transform="translate(0.764 0.764)" fill="#e8f8fc"/>
  <path id="Path-3" data-name="Path" d="M40.856,4.732H7.315A3.529,3.529,0,0,0,4.066,8.4H0V3.786A3.549,3.549,0,0,1,3.251,0H40.844C43.638,0,43.5,4.732,40.856,4.732Z" transform="translate(0.764 0.764)" fill="none"/>
  <path id="Path-4" data-name="Path" d="M37.415,1.823V13.448a1.824,1.824,0,0,1-1.825,1.824H1.825A1.824,1.824,0,0,1,0,13.448V1.823A1.824,1.824,0,0,1,1.825,0H35.59A1.824,1.824,0,0,1,37.415,1.823Z" transform="translate(3.949 25.296)" fill="#fff"/>
  <path id="Path-5" data-name="Path" d="M0,0H1.527V15.272H0Z" transform="translate(24.08 25.296)" fill="#eef7ff"/>
  <path id="Shape" d="M25.317,30.4v9.641H39.608a.867.867,0,0,0,.817-.907V27.563a.867.867,0,0,0-.817-.907H9.392a.867.867,0,0,0-.817.907V39.132a.867.867,0,0,0,.817.907H19.447a.912.912,0,0,1,0,1.815H9.392a2.6,2.6,0,0,1-2.45-2.722V27.563a2.6,2.6,0,0,1,2.45-2.722H39.608a2.6,2.6,0,0,1,2.45,2.722V39.132a2.6,2.6,0,0,1-2.45,2.722H24.5a.866.866,0,0,1-.817-.907V30.4a.821.821,0,1,1,1.633,0Zm3.318-8.223c.437,0,.5-.182,1.854-1.684a.924.924,0,0,0-.577-1.549H22.152a.912.912,0,0,0,0,1.815h5.807A.916.916,0,0,0,28.634,22.175Zm-7.691-8.241a.76.76,0,0,0-1.155,0l-1.276,1.418A.924.924,0,0,0,19.09,16.9h7.758a.912.912,0,0,0,0-1.815H21.041A.984.984,0,0,0,20.943,13.934ZM49,8.961V4.537A4.333,4.333,0,0,0,44.917,0H4.083A4.333,4.333,0,0,0,0,4.537V44.463A4.333,4.333,0,0,0,4.083,49H44.917A4.333,4.333,0,0,0,49,44.463V15.35a.821.821,0,1,0-1.633,0V44.463a2.6,2.6,0,0,1-2.45,2.722H4.083a2.6,2.6,0,0,1-2.45-2.722V4.537a2.6,2.6,0,0,1,2.45-2.722H44.917a2.6,2.6,0,0,1,2.45,2.722V8.053H6.942a.912.912,0,0,0,0,1.815H48.183A.866.866,0,0,0,49,8.961ZM6.942,5.9H7.35a.866.866,0,0,0,.817-.907.866.866,0,0,0-.817-.907H6.942a.866.866,0,0,0-.817.907A.866.866,0,0,0,6.942,5.9Zm5.512,0a.866.866,0,0,0,.817-.907.866.866,0,0,0-.817-.907h-.408a.866.866,0,0,0-.817.907.866.866,0,0,0,.817.907Zm5.1,0a.866.866,0,0,0,.817-.907.866.866,0,0,0-.817-.907H17.15a.866.866,0,0,0-.817.907.866.866,0,0,0,.817.907Z"/>
  <path id="Rectangle" d="M.763,0h8.4a.763.763,0,0,1,.763.763v.765a.763.763,0,0,1-.763.763H.763A.763.763,0,0,1,0,1.528V.763A.763.763,0,0,1,.763,0Z" transform="translate(10.779 29.863)" fill="#ffb840" fill-rule="evenodd"/>
  <path id="Rectangle-2" data-name="Rectangle" d="M.763,0H25.2a.763.763,0,0,1,.763.763v.765a.763.763,0,0,1-.763.763H.763A.763.763,0,0,1,0,1.528V.763A.763.763,0,0,1,.763,0Z" transform="translate(9.962 34.458)" fill="#ffb840" fill-rule="evenodd"/>
</svg>
