<svg xmlns="http://www.w3.org/2000/svg" width="60" height="60" viewBox="0 0 60 60">
  <g id="Safe" transform="translate(-2 -2)">
    <path id="Path_18403" data-name="Path 18403" d="M57,53.27a2.448,2.448,0,0,1-1.63,2.31L40,61H25L13,57H9V44l5-2h6l15,3,2,2v3H23l9,5h8l13.86-4.08a2.4,2.4,0,0,1,.69-.1A2.454,2.454,0,0,1,57,53.27Z" fill="#ffdaaa"/>
    <path id="Path_18404" data-name="Path 18404" d="M47,7V19a23.656,23.656,0,0,1-4.4,14.14C39.89,36.76,36.14,39,32,39c-8.28,0-15-8.95-15-20V7L32,3Z" fill="#ebe5dd"/>
    <path id="Path_18405" data-name="Path 18405" d="M47,7V19a23.656,23.656,0,0,1-4.4,14.14C39.89,36.76,36.14,39,32,39c-4.28,0-8.13-2.39-10.86-6.22A11.984,11.984,0,0,0,28,35c4.14,0,7.89-2.24,10.6-5.86A23.656,23.656,0,0,0,43,15V5.93Z" fill="#c0ab91"/>
    <path id="Path_18406" data-name="Path 18406" d="M40,19v4a1,1,0,0,1-1,1H36a1,1,0,0,0-1,1v3a1,1,0,0,1-1,1H30a1,1,0,0,1-1-1V25a1,1,0,0,0-1-1H25a1,1,0,0,1-1-1V19a1,1,0,0,1,1-1h3a1,1,0,0,0,1-1V14a1,1,0,0,1,1-1h4a1,1,0,0,1,1,1v3a1,1,0,0,0,1,1h3A1,1,0,0,1,40,19Z" fill="#57a4ff"/>
    <path id="Path_18407" data-name="Path 18407" d="M9,41V59L3,60V40Z" fill="#00d7df"/>
    <path id="Path_18408" data-name="Path 18408" d="M56.62,50.51a3.415,3.415,0,0,0-3.04-.55L39.86,54h-7.6l-5.4-3H37a1,1,0,0,0,1-1V47a1.033,1.033,0,0,0-.29-.71l-2-2a1.014,1.014,0,0,0-.51-.27l-15-3A1.355,1.355,0,0,0,20,41H14a.937.937,0,0,0-.37.07L10,42.52V41a1,1,0,0,0-.84-.99l-6-1a1.039,1.039,0,0,0-.81.23A1.011,1.011,0,0,0,2,40V60a1,1,0,0,0,1,1,.86.86,0,0,0,.16-.01l6-1A1,1,0,0,0,10,59V58h2.84l11.84,3.95A1.185,1.185,0,0,0,25,62H40a.919.919,0,0,0,.33-.06L55.7,56.52A3.449,3.449,0,0,0,58,53.27a3.411,3.411,0,0,0-1.38-2.76ZM8,58.15l-4,.67V41.18l4,.67Zm47.04-3.52L39.83,60H25.16L13.32,56.05A1.185,1.185,0,0,0,13,56H10V44.68L14.19,43H19.9l14.61,2.92L36,47.41V49H23a1,1,0,0,0-.49,1.87l9,5A.947.947,0,0,0,32,56h8a.863.863,0,0,0,.28-.04l13.87-4.08a1.413,1.413,0,0,1,1.27.23,1.446,1.446,0,0,1-.38,2.52Z"/>
    <path id="Path_18409" data-name="Path 18409" d="M32,40c8.822,0,16-9.421,16-21V7a1,1,0,0,0-.742-.966l-15-4a1,1,0,0,0-.516,0l-15,4A1,1,0,0,0,16,7V19C16,30.579,23.178,40,32,40ZM18,7.769,32,4.035,46,7.769V19c0,10.477-6.28,19-14,19S18,29.477,18,19Z"/>
    <path id="Path_18410" data-name="Path 18410" d="M28,25v3a2,2,0,0,0,2,2h4a2,2,0,0,0,2-2V25h3a2,2,0,0,0,2-2V19a2,2,0,0,0-2-2H36V14a2,2,0,0,0-2-2H30a2,2,0,0,0-2,2v3H25a2,2,0,0,0-2,2v4a2,2,0,0,0,2,2Zm-3-6h3a2,2,0,0,0,2-2V14h4v3a2,2,0,0,0,2,2h3v4H36a2,2,0,0,0-2,2v3H30V25a2,2,0,0,0-2-2H25Z"/>
    <path id="Path_18411" data-name="Path 18411" d="M52,8h2V6h2V4H54V2H52V4H50V6h2Z"/>
    <path id="Path_18412" data-name="Path 18412" d="M62,10H60V8H58v2H56v2h2v2h2V12h2Z"/>
    <path id="Path_18413" data-name="Path 18413" d="M48,33v2H46v2h2v2h2V37h2V35H50V33Z"/>
    <path id="Path_18414" data-name="Path 18414" d="M56,27H54v2H52v2h2v2h2V31h2V29H56Z"/>
    <path id="Path_18415" data-name="Path 18415" d="M10,8h2V6h2V4H12V2H10V4H8V6h2Z"/>
    <path id="Path_18416" data-name="Path 18416" d="M4,14H6V12H8V10H6V8H4v2H2v2H4Z"/>
    <path id="Path_18417" data-name="Path 18417" d="M14,33v2H12v2h2v2h2V37h2V35H16V33Z"/>
    <path id="Path_18418" data-name="Path 18418" d="M10,33V31h2V29H10V27H8v2H6v2H8v2Z"/>
  </g>
</svg>
